<svg xmlns="http://www.w3.org/2000/svg" viewBox="0 0 1487.26 365.2"><g id="Layer_2" data-name="Layer 2"><g id="_1" data-name=" 1"><path d="M852.64,66.2c-18.5.68-27.71-11.6-13.43-17.87,19.62-8.62,46.61-17,78-17.48,65.79-1,62.35,18.35,33.15,26.69C933.64,62.32,888.27,64.89,852.64,66.2Z" style="fill:#ffe6e6"/><path d="M51.2,356.26c-36.63-.2-61.49-37.69-47-71.33C15.88,257.78,35.86,228.18,70,206.56c81.78-51.79,185.38-16.44,185.38-16.44s80.81-60,144-43.49S506.1,190.08,506.1,190.08,673.33,62.74,881.87,120c0,0,196.79-158.86,400.54-70.43C1416.71,107.9,1467,226,1485.66,299.67a51.36,51.36,0,0,1-50,64.05Z" style="fill:#ffe6e6"/><path d="M23.33,365.2h1393a22.69,22.69,0,0,0,21.92-28.58C1425.32,288.7,1383.6,193.86,1252,158.14c-210-57-413.46,76.8-413.46,76.8s-102.11-67.89-258.92-38.73-186.32,62.46-186.32,62.46S270.93,193,171.48,220.94C86.85,244.76,20.64,281.17,1.83,335.18A22.68,22.68,0,0,0,23.33,365.2Z" style="fill:#ffcaca"/><path d="M261.51,150.34s92.78-10.79,98.57-42.69-56.1-27.8-88.35-3.51S225.53,151.33,261.51,150.34Z" style="fill:#ffe6e6"/><path d="M652.55,94.86a11.26,11.26,0,0,1,9.07-11.39c19.65-4.16,79.6-15.38,68.34,5.19C718.08,110.38,653.67,117,652.55,94.86Z" style="fill:#ffe6e6"/><path d="M1248.7,27.29c-6.39-2-11.3-6.34-12.68-11.75s.31-11.48,12.39-14.94c24.16-6.91,118.4,47.32,120.18,69.83C1370.3,92.09,1308,45.45,1248.7,27.29Z" style="fill:#ffe6e6"/></g></g></svg>