<?xml version="1.0" encoding="UTF-8"?>
<svg width="1500px" height="1000px" viewBox="0 0 1500 1000" version="1.1" xmlns="http://www.w3.org/2000/svg" xmlns:xlink="http://www.w3.org/1999/xlink">
    <title>Artboard@1.5x</title>
    <defs>
        <polygon id="path-1" points="0 0 268 0 268 528 0 528"></polygon>
        <polygon id="path-3" points="0 0 96 0 96 13 0 13"></polygon>
        <polygon id="path-5" points="0 0 81 0 81 219 0 219"></polygon>
        <polygon id="path-7" points="0 0 81 0 81 219 0 219"></polygon>
        <polygon id="path-9" points="0 0 81 0 81 219 0 219"></polygon>
        <polygon id="path-11" points="0 0 81 0 81 219 0 219"></polygon>
        <polygon id="path-13" points="0 0 59 0 59 167 0 167"></polygon>
        <polygon id="path-15" points="0 0 108 0 108 124 0 124"></polygon>
    </defs>
    <g id="Artboard" stroke="none" stroke-width="1" fill="none" fill-rule="evenodd">
        <path d="M54.08701,762.751643 C192.446155,1053.62637 1167.93923,1085.78602 1375.40066,800.636285 C1500.71746,628.393863 1521.10634,84.3686546 1180.14164,8.59353786 C839.176948,-67.1815789 -79.0225314,482.921504 54.08701,762.751643" id="Fill-1" fill="#6EF3FF"></path>
        <g id="Group-137" transform="translate(181.000000, 174.000000)">
            <g id="Group-3" transform="translate(870.000000, 245.000000)">
                <mask id="mask-2" fill="white">
                    <use xlink:href="#path-1"></use>
                </mask>
                <g id="Clip-2"></g>
                <path d="M226.956199,0 C226.956199,0 269.378029,13.5317369 267.96594,82.6500508 C266.556215,151.768365 117.941439,265.71174 117.941439,265.71174 C117.941439,265.71174 137.029489,315.32732 154.797695,360.951984 C173.947243,410.120449 195.010326,520.318939 169.048687,526.980717 C108.5961,542.497267 0,377.459756 0,263.490359 C0,174.337031 95.2983291,38.922669 95.2983291,38.922669 L226.956199,0 Z" id="Fill-1" fill="#1E1240" mask="url(#mask-2)"></path>
            </g>
            <path d="M924,62 C924,62 657.313883,184.87097 623.257299,198.169172 C596.308774,208.693588 595.230358,223.715717 612.513441,235.198393 C629.796524,246.67872 820.495857,199.947119 861.295498,189.415657 C902.095139,178.884195 924,62 924,62" id="Fill-4" fill="#AD263D"></path>
            <path d="M1003.22468,787.209665 C1005.78688,779.618327 1017.05769,772.004054 1017.05769,772.004054 L1014.32515,763.832471 L1042.9268,762 L1046,778.450958 C1046,778.450958 1042.85962,785.395541 1033.14821,790.175103 C1020.56272,796.367433 1000.66488,794.801003 1003.22468,787.209665" id="Fill-6" fill="#FF6161"></path>
            <path d="M965.381133,802.886434 C959.831231,783.965984 1016.72829,770 1016.72829,770 C1016.72829,770 1022.50807,781.262061 1034.55553,781.262061 C1037.94271,781.262061 1045.02669,776.567004 1045.02669,776.567004 C1045.02669,776.567004 1062.4622,793.00321 1056.90761,800.455941 C1049.07066,810.972496 966.443731,806.508802 965.381133,802.886434" id="Fill-8" fill="#311E69"></path>
            <path d="M852.224657,787.209665 C854.786859,779.618327 866.05767,772.004054 866.05767,772.004054 L863.325134,763.832471 L891.926797,762 L895,778.450958 C895,778.450958 891.859623,785.395541 882.148204,790.175103 C869.565104,796.367433 849.664854,794.801003 852.224657,787.209665" id="Fill-10" fill="#FF6161"></path>
            <path d="M815.381133,802.886434 C809.831231,783.965984 866.728286,770 866.728286,770 C866.728286,770 872.508066,781.262061 884.555529,781.262061 C887.942706,781.262061 895.026689,776.567004 895.026689,776.567004 C895.026689,776.567004 912.462203,793.00321 906.907609,800.455941 C899.070659,810.972496 816.443731,806.508802 815.381133,802.886434" id="Fill-12" fill="#311E69"></path>
            <path d="M957.159852,289.177207 C957.159852,289.177207 834.296226,383.579796 813.149855,456.567483 C792.003485,529.557525 839.977657,772 884.386454,772 C939.12964,772 889.514638,539.074997 927.944099,505.211817 C959.961557,477.003094 1127.63828,352.687442 1097.36095,300.665029 C1085.45666,280.21294 1041.96521,279.155966 957.159852,289.177207" id="Fill-14" fill="#311E69"></path>
            <path d="M845,31.6415224 C845,31.6415224 849.159097,41.710877 852.218634,52.115494 C855.275705,62.5224073 859.925413,69.9165513 867.91078,69.9992188 C881.667603,70.1392942 893.632094,51.4105243 885.183235,39.5362638 C876.734376,27.6597069 845,31.6415224 845,31.6415224" id="Fill-16" fill="#FF6161"></path>
            <path d="M884.181274,39 C881.460741,45.4077304 880.233265,53.5259784 875.412633,58.8185783 C870.498266,64.2136628 864.233676,65.5874451 860,65.8338963 C862.133576,68.4448146 864.709044,69.9625634 867.862541,69.9991651 C879.876181,70.1431316 890.332044,51.6373328 884.181274,39" id="Fill-18" fill="#AD263D"></path>
            <path d="M925,68.5839752 C925,68.5839752 890.984439,32.5339195 874.492116,35.1341957 C857.997456,37.7368954 883.171917,90.8523244 890.982101,89.9896046 C898.789947,89.1293081 925,68.5839752 925,68.5839752" id="Fill-20" fill="#FF6161"></path>
            <path d="M890.804942,46.7546636 L890.804942,46.7546636 C894.039187,42.1617837 894.85245,36.392178 893.087247,31.0991919 C889.067945,19.0537146 880.427621,-1.0327231 867.742139,0.0413813694 C849.688185,1.56930068 827.586724,-3.41582112 826.195247,8.69122903 C823.760161,29.8951002 844.836817,31.8335053 848.555259,38.5335455 C852.271351,45.2313052 854.100016,48.02945 856.154326,45.9656187 C858.208636,43.9040678 861.964686,42.1458204 867.351961,46.0591182 C872.741587,49.9746965 890.804942,46.7546636 890.804942,46.7546636" id="Fill-22" fill="#311E69"></path>
            <path d="M863.318624,26.0239875 C854.051711,30.3493152 845.012415,32.072688 840,32.7440149 C843.670928,34.7715122 846.913258,36.4520823 848.184522,38.6485378 C852.012845,45.2649375 853.894316,48.0290922 856.010669,45.990331 C858.127022,43.9538225 861.99893,42.2146803 867.548908,46.0826948 C873.101307,49.9507092 891.710199,46.7697911 891.710199,46.7697911 C895.042123,42.2327025 895.877525,36.5331822 894.059012,31.3044918 C891.865172,24.9944694 888.317739,16.4744749 883.535363,10 C880.908083,15.2602293 872.747775,21.6198127 863.318624,26.0239875" id="Fill-24" fill="#1E1240"></path>
            <path d="M857.861014,49.9999559 C857.861014,49.9999559 854.295974,45.5445277 857.034408,40.9450611 C859.772842,36.3431532 865.075687,40.219986 865.902293,49.277322 C866.728899,58.3346581 862.160814,57.9049839 857.861014,49.9999559" id="Fill-26" fill="#FF6161"></path>
            <path d="M962.700894,294.976848 C954.710896,294.516368 951.907925,274.819638 947.66699,268.009259 C895.043618,183.526555 844.328903,193.286366 836.658976,162.899419 C819.869391,96.3707066 934.854752,23.4094449 985.840115,56.0350329 C1043.15629,92.7128436 1110.07693,228.646496 1124,271.461677 C1105.41943,315.674827 1015.12187,297.992401 962.700894,294.976848" id="Fill-28" fill="#614CD4"></path>
            <path d="M387.013495,320.631722 C380.177994,344.159583 347.726412,507.575872 346.042814,616.08909 C345.375018,659.18332 352.622013,692.742549 360.590886,697.084591 C398.744597,717.868244 464.40491,378.380637 463.998119,325.845954 C463.643058,279.875151 412.51906,269.361596 396.588369,290.336706 C393.155335,294.858385 388.899313,314.141115 387.013495,320.631722" id="Fill-30" fill="#FF6161"></path>
            <path d="M463.998119,327.330528 C463.751222,295.400292 441.749233,274.567833 421.035808,276.076885 C416.556403,292.337457 408.554611,324.025208 407.27075,346.917607 C405.474286,378.984387 403.28749,414.978 394.121758,447.572124 C385.985936,476.505442 387.187498,583.200878 346.285008,606.262781 C346.179195,609.695228 346.094545,613.082946 346.042814,616.416516 C345.375019,659.336233 352.622013,692.76375 360.588535,697.088445 C398.744597,717.786715 464.40491,379.657693 463.998119,327.330528" id="Fill-32" fill="#AD263D"></path>
            <path d="M452.789047,336.843649 L401.074819,320 C401.074819,320 387.514199,362.385189 417.34897,397.160311 C429.884686,411.776622 440.546495,421.557639 448.705851,428 C454.472984,396.48835 458.795403,368.665434 461,349.136293 L452.789047,336.843649 Z" id="Fill-34" fill="#311E69"></path>
            <path d="M534.098379,315.687076 C535.669284,356.107418 612.816589,350.497978 645,324.388629 C618.759017,279.445075 607.869305,231.937273 553.307016,229.145456 C551.999113,229.079766 550.629606,229.032845 549.229297,229 C543.926605,245.206612 532.842603,283.34658 534.098379,315.687076" id="Fill-36" fill="#AD263D"></path>
            <path d="M469.414708,323.663248 C499.446984,336.496244 518.634926,253.232304 523,232 C497.834829,234.610818 467.797839,241.427171 442.276769,254.333082 C441.329274,269.238268 441.23971,311.622906 469.414708,323.663248" id="Fill-38" fill="#FF6161"></path>
            <path d="M727.083135,432.676263 C705.683054,393.32786 665.90249,363.288522 645.340792,327.811192 C645.267374,327.683183 645.198693,327.557545 645.127643,327.431907 C612.95884,353.811149 535.846549,359.479083 534.276357,318.639617 C533.021151,285.95951 544.100122,247.424198 549.400408,231.048586 C541.412086,230.856574 532.014618,231.226376 521.811923,232.288373 C517.425806,253.684764 498.145365,337.603845 467.968313,324.667871 C439.657493,312.535506 439.747489,269.816211 440.699551,254.796542 C422.297754,264.129312 406.235851,276.621998 396,292.985757 C396.426296,311.542254 399.642466,339.715986 412.691874,367.58392 C418.112944,379.166322 426.830706,388.961346 437.862311,395.416296 C445.13777,399.676135 452.093507,405.163909 457.917191,413.370679 C487.660841,455.295847 492.129849,479.048543 492.129849,479.048543 C492.129849,479.048543 626.995835,532.333284 656.163985,522.874875 C705.090975,507.006557 767.320783,506.658089 727.083135,432.676263" id="Fill-40" fill="#FF9791"></path>
            <path d="M534.098379,315.687076 C535.669284,356.107418 612.816589,350.497978 645,324.388629 C618.759017,279.445075 607.869305,231.937273 553.307016,229.145456 C551.999113,229.079766 550.629606,229.032845 549.229297,229 C543.926605,245.206612 532.842603,283.34658 534.098379,315.687076" id="Fill-42" fill="#AD263D"></path>
            <path d="M469.414708,323.663248 C499.446984,336.496244 518.634926,253.232304 523,232 C497.834829,234.610818 467.797839,241.427171 442.276769,254.333082 C441.329274,269.238268 441.23971,311.622906 469.414708,323.663248" id="Fill-44" fill="#FF6161"></path>
            <path d="M727.083135,432.676263 C705.683054,393.32786 665.90249,363.288522 645.340792,327.811192 C645.267374,327.683183 645.198693,327.557545 645.127643,327.431907 C612.95884,353.811149 535.846549,359.479083 534.276357,318.639617 C533.021151,285.95951 544.100122,247.424198 549.400408,231.048586 C541.412086,230.856574 532.014618,231.226376 521.811923,232.288373 C517.425806,253.684764 498.145365,337.603845 467.968313,324.667871 C439.657493,312.535506 439.747489,269.816211 440.699551,254.796542 C422.297754,264.129312 406.235851,276.621998 396,292.985757 C396.426296,311.542254 399.642466,339.715986 412.691874,367.58392 C418.112944,379.166322 426.830706,388.961346 437.862311,395.416296 C445.13777,399.676135 452.093507,405.163909 457.917191,413.370679 C487.660841,455.295847 492.129849,479.048543 492.129849,479.048543 C492.129849,479.048543 626.995835,532.333284 656.163985,522.874875 C705.090975,507.006557 767.320783,506.658089 727.083135,432.676263" id="Fill-46" fill="#FF9791"></path>
            <path d="M349.238179,673.220793 C349.238179,673.220793 337.871339,705.849364 338.001103,712.736581 C338.135419,719.623799 342.105732,729.43336 355.127628,729.953458 C358.770116,730.100392 361.684107,729.885822 363.990257,729.500996 C368.249692,728.789652 371.236533,724.792127 370.699266,720.407444 C369.986704,714.614065 372.962161,706.989848 374.908616,698.355754 C381.09174,670.932828 359.437147,660.857387 349.238179,673.220793" id="Fill-48" fill="#AD263D"></path>
            <path d="M692.934032,577.378356 C692.934032,577.378356 665.754726,592.277055 638.200949,577.378356 C610.644859,562.477275 669.820758,487.214187 687.439457,505.987071 C705.055845,524.762338 692.934032,577.378356 692.934032,577.378356" id="Fill-50" fill="#311E69"></path>
            <path d="M530.982786,454.095586 C530.982786,454.095586 655.62745,474.555311 649.801985,522.25763 C644.854232,562.777531 485.617772,564.080202 435.37343,563.534073 C430.383208,563.479697 450.214328,607.917066 453.843151,637.604235 C455.367352,650.080081 448.057797,676.405369 444.620088,703.671605 C439.429313,744.82511 436.782018,788 436.782018,788 L401.739568,779.905004 C401.739568,779.905004 365.213028,635.23295 357.45046,558.533805 C351.023337,495.024493 413.59341,415.632532 530.982786,454.095586" id="Fill-52" fill="#FF6161"></path>
            <path d="M437.333663,562.779116 C475.277905,563.194241 575.703916,562.534785 624,544.394996 L619.046977,480.434865 C616.850847,479.248793 614.589021,478.105419 612.280269,477 L443.626419,507.534244 C443.626419,507.534244 436.087781,523.859342 415.060308,539.164418 C394.032835,554.469494 383.706802,554.469494 386.428501,570.929804 C389.1502,587.387743 426.050342,689.57261 426.050342,710.900561 C426.050342,724.001914 414.391615,753.888563 409.159383,781.106548 L438.736746,788 C438.736746,788 441.369286,744.679898 446.531129,703.387979 C449.949677,676.030037 457.218491,649.616208 455.70044,637.098402 C452.091842,607.309012 432.3736,562.724557 437.333663,562.779116" id="Fill-54" fill="#AD263D"></path>
            <path d="M422,448.899752 C422,448.899752 453.61054,546.437658 455.093545,570 C455.093545,570 606.941355,566.052804 623.406265,545.011361 C639.868803,523.972287 613.414373,459.004668 522.426701,445.611212 C464.098349,437.027364 457.357203,438.422862 422,448.899752" id="Fill-56" fill="#311E69"></path>
            <path d="M483.55529,210 L501.980386,248.9477 C502.840298,254.884101 475.190274,276.03945 465.389068,269.891207 C462.51894,268.092954 462.45591,262.286547 464.031666,255.736285 L473.821616,219.879558 L483.55529,210 Z" id="Fill-58" fill="#FF6161"></path>
            <path d="M471.853348,226.3876 C478.25061,224.163222 486.964498,221 486.964498,221 C486.964498,221 487.920105,232.053564 479.915684,241.707718 C475.678192,246.819485 470.311345,249.780261 465,251 L471.853348,226.3876 Z" id="Fill-60" fill="#311E69"></path>
            <path d="M655.904316,521.873012 C704.982288,505.972153 767.406504,505.620543 727.042313,431.475931 C705.576193,392.043323 665.672873,361.937888 645.050099,326.380119 C644.974079,326.254205 644.905186,326.125914 644.833918,326 C627.841094,339.924239 598.345373,348.084921 574,346.716493 C589.474801,370.200727 607.068657,400.36318 613.86056,424.945009 C620.50755,449.013677 626.037997,488.298989 629.88888,521.34322 C641.222972,523.217683 650.423756,523.647693 655.904316,521.873012" id="Fill-62" fill="#D95F76"></path>
            <path d="M446.434038,213.246071 C446.434038,213.246071 425.944081,177.725456 448.838119,171.879812 C463.057661,168.251401 469.302746,177.018684 469.302746,177.018684 C469.302746,177.018684 484.588465,177.325976 487.895229,193.399722 C491.374699,210.329158 485.523386,215 485.523386,215 L483.83316,211.57251 L446.434038,213.246071 Z" id="Fill-64" fill="#311E69"></path>
            <path d="M469.475583,510.984445 C457.632618,507.538127 448.726102,506.620677 442,507.131155 C449.472657,532.563338 456.613512,559.162329 457.300816,570 C457.300816,570 608.96992,566.080842 625.415453,545.18886 C631.169849,537.879843 631.667552,525.226091 625.996107,511.294967 C574.644994,523.144185 501.658015,520.347139 469.475583,510.984445" id="Fill-66" fill="#1E1240"></path>
            <path d="M472.73057,197.247092 L484.582099,219.019206 C487.948442,226.519647 485.125351,235.531804 478.181273,239.323209 C472.63283,242.351488 468.818701,243.223633 461.092704,243.955265 C454.65551,244.565766 450.157203,238.875024 448.411523,230.107551 C446.147594,218.735759 447.093171,207.572312 447.913731,201.63204 C449.782154,188.084732 464.03172,183.658599 472.73057,197.247092" id="Fill-68" fill="#FF6161"></path>
            <path d="M473.974693,208.710107 C473.980091,207.045601 473.720991,205.401771 473.36203,203.773449 C472.681893,200.679637 472.414697,195.929073 477.707348,197.216223 C485.404768,199.090085 488.101024,215.766169 480.392808,218.640286 C474.668324,220.772612 473.958499,212.904975 473.974693,208.710107" id="Fill-70" fill="#FF6161"></path>
            <path d="M461,217 C461,217 455.861238,219.627397 448,220.348742 C448,220.348742 448.852109,225.663648 452.246303,226.813291 C455.64287,227.962934 460.454081,223.694979 461,217" id="Fill-72" fill="#FFFFFF"></path>
            <path d="M455.187792,232.843127 C462.433829,229.809508 470.615628,239.757398 481.763943,226.433269 C483.841238,223.949271 484.132745,218.947964 484.191537,216 L484.470796,216.466345 C488.101163,223.832685 485.05626,232.683713 477.575057,236.407332 C471.593035,239.381468 467.484988,240.235639 459.15621,240.95657 C454.925681,241.320604 451.476587,239.376709 449,235.855332 C450.393845,235.786332 452.975767,233.771057 455.187792,232.843127" id="Fill-74" fill="#AD263D"></path>
            <path d="M657.998422,444.084195 C699.654305,445.290884 734.048442,478.089162 735.920537,519.812206 C735.953588,520.550415 735.977196,521.298089 735.99136,522.048129 C736.914424,570.135866 663.565131,578.764874 663.565131,578.764874 C663.565131,578.764874 700.171315,614.083003 702.933422,645.523164 C704.153943,659.378792 706.188931,703.153207 704.165747,729.037867 C701.594862,761.888198 695.185357,781.893208 695.185357,781.893208 L664.969792,788 C664.969792,788 622.423897,696.885523 606.974983,672.032463 C584.98672,636.659916 563.345492,584.221001 556.534655,556.571263 C542.94131,501.390088 566.855965,441.443676 657.998422,444.084195" id="Fill-76" fill="#FF6161"></path>
            <path d="M663.084613,788 L693.251334,781.874046 C693.251334,781.874046 699.650479,761.806267 702.217207,728.850488 C704.237121,702.886983 702.205422,658.975217 700.986875,645.07374 C698.229232,613.534929 661.682223,578.105983 661.682223,578.105983 C661.682223,578.105983 734.912945,569.452272 733.991374,521.213651 C733.977233,520.458884 733.951306,519.711238 733.920666,518.968338 C732.053954,477.116753 709.759477,456.189774 668.173288,454.979299 C668.121435,454.976925 642.50836,449.418234 643.389862,456.942167 C644.912458,469.944095 644.219512,486.938216 633.832393,498.893439 C614.752808,520.850508 625.656101,539.517934 617.477453,556.53579 C609.303518,573.5489 637.216986,663.385144 648.063712,701.085511 C651.874916,714.33428 651.250321,737.029502 650.49138,761.253246 C657.896946,776.83752 663.084613,788 663.084613,788" id="Fill-78" fill="#AD263D"></path>
            <path d="M744.952676,513.111462 C749.869102,472.163491 740.090457,444.889879 658.443839,444.014401 C631.250297,443.723357 610.0432,447.844912 594,456.275791 C615.006764,459.665041 654.920322,468.518403 670.188112,493.226605 C701.506173,543.910457 690.69522,571.033852 690.69522,571.033852 C690.69522,571.033852 695.42781,577.026067 695.826121,579 C715.986769,571.489195 740.684388,548.668083 744.952676,513.111462" id="Fill-80" fill="#311E69"></path>
            <path d="M911.217057,224 C921.984908,172.768117 898.032937,145 898.032937,145 L870,193.42337 C881.889356,200.200434 896.026403,209.102669 911.217057,224" id="Fill-82" fill="#311E69"></path>
            <path d="M556.790522,235.930766 C566.397669,238.492362 592.255806,228.639884 591.979766,231.043917 C591.677773,233.68907 587.626822,235.474787 580.296418,238.091292 C572.963654,240.710185 572.692332,250.276184 580.494601,245.845315 C588.296869,241.414445 596.429441,242.834901 606.626418,240.588431 C612.312377,239.335087 630.188938,229.425313 627.777713,217.135378 C626.763206,211.964439 621.782684,207.287675 619.022281,205.728753 C607.440383,199.182716 577.868678,212.816713 565.784246,220.148179 C558.557652,224.531302 551.628332,234.553281 556.790522,235.930766" id="Fill-84" fill="#AD263D"></path>
            <path d="M422.526466,746.643913 C416.676227,745.051401 410.740617,746.629799 405.810481,749.010334 C399.07571,752.263574 395.00402,759.172298 394.871221,766.600883 C394.738423,774.013001 392.618393,784.156148 383.31777,790.64381 C381.219083,792.106944 350.727646,806.486595 348.723815,808.008538 C324.331614,826.535305 427.304833,817.812952 439.211623,809.570469 C447.407175,803.896706 439.451134,790.443864 441.419394,773.530779 C442.420124,764.942507 430.930701,748.932707 422.526466,746.643913" id="Fill-86" fill="#311E69"></path>
            <path d="M653.787251,745.804506 C641.677771,751.568401 657.754799,774.732873 638.159158,787.293907 C636.001452,788.680436 604.674752,808.130559 602.690978,809.691311 C578.514325,828.751851 680.575247,819.779338 692.37917,811.300459 C700.5023,805.463971 695.509959,787.538304 695.195,770.028838 C694.743715,744.872894 663.978771,740.955284 653.787251,745.804506" id="Fill-88" fill="#311E69"></path>
            <g id="Group-92" transform="translate(0.000000, 709.000000)">
                <mask id="mask-4" fill="white">
                    <use xlink:href="#path-3"></use>
                </mask>
                <g id="Clip-91"></g>
                <path d="M90.0180465,13 L5.98124756,13 C2.67964221,13 -0.00070597406,10.1911904 -0.00070597406,6.72584014 L-0.00070597406,6.27415986 C-0.00070597406,2.80880957 2.67964221,0 5.98124756,0 L90.0180465,0 C93.3220051,0 96,2.80880957 96,6.27415986 L96,6.72584014 C96,10.1911904 93.3220051,13 90.0180465,13" id="Fill-90" fill="#CCCCCC" mask="url(#mask-4)"></path>
            </g>
            <g id="Group-95" transform="translate(22.000000, 607.000000)">
                <mask id="mask-6" fill="white">
                    <use xlink:href="#path-5"></use>
                </mask>
                <g id="Clip-94"></g>
                <path d="M50.0491322,0 C22.4074766,0 0,49.0262633 0,109.500236 C0,169.976564 22.4074766,219.000471 50.0491322,219.000471 C51.7121495,219.000471 81,218.465554 81,218.465554 L81,0 L50.0491322,0 Z" id="Fill-93" fill="#311E69" mask="url(#mask-6)"></path>
            </g>
            <path d="M155,716.5 C155,776.976199 133.06223,826 106,826 C78.9377701,826 57,776.976199 57,716.5 C57,656.026158 78.9377701,607 106,607 C133.06223,607 155,656.026158 155,716.5" id="Fill-96" fill="#614CD4"></path>
            <g id="Group-100" transform="translate(77.000000, 607.000000)">
                <mask id="mask-8" fill="white">
                    <use xlink:href="#path-7"></use>
                </mask>
                <g id="Clip-99"></g>
                <path d="M50.0500504,0 C22.4068118,0 0,49.0262633 0,109.500236 C0,169.976564 22.4068118,219.000471 50.0500504,219.000471 C51.7130185,219.000471 81,218.465554 81,218.465554 L81,0 L50.0500504,0 Z" id="Fill-98" fill="#311E69" mask="url(#mask-8)"></path>
            </g>
            <path d="M212,716.5 C212,776.976199 190.06223,826 163,826 C135.93777,826 114,776.976199 114,716.5 C114,656.026158 135.93777,607 163,607 C190.06223,607 212,656.026158 212,716.5" id="Fill-101" fill="#614CD4"></path>
            <path d="M848,722 L177.016431,722 C173.695797,722 171,719.19119 171,715.72584 L171,715.27416 C171,711.80881 173.695797,709 177.016431,709 L848,709 L848,722 Z" id="Fill-103" fill="#CCCCCC"></path>
            <g id="Group-107" transform="translate(778.000000, 607.000000)">
                <mask id="mask-10" fill="white">
                    <use xlink:href="#path-9"></use>
                </mask>
                <g id="Clip-106"></g>
                <path d="M50.0476473,0 C22.4068118,0 0,49.0262633 0,109.500236 C0,169.976564 22.4068118,219.000471 50.0476473,219.000471 C51.7106153,219.000471 81,218.465554 81,218.465554 L81,0 L50.0476473,0 Z" id="Fill-105" fill="#311E69" mask="url(#mask-10)"></path>
            </g>
            <path d="M912,716.5 C912,776.976199 890.06223,826 863,826 C835.93777,826 814,776.976199 814,716.5 C814,656.026158 835.93777,607 863,607 C890.06223,607 912,656.026158 912,716.5" id="Fill-108" fill="#614CD4"></path>
            <g id="Group-112" transform="translate(835.000000, 607.000000)">
                <mask id="mask-12" fill="white">
                    <use xlink:href="#path-11"></use>
                </mask>
                <g id="Clip-111"></g>
                <path d="M50.0491322,0 C22.4074766,0 0,49.0262633 0,109.500236 C0,169.976564 22.4074766,219.000471 50.0491322,219.000471 C51.7121495,219.000471 81,218.465554 81,218.465554 L81,0 L50.0491322,0 Z" id="Fill-110" fill="#311E69" mask="url(#mask-12)"></path>
            </g>
            <path d="M968,716.5 C968,776.976199 946.06223,826 919,826 C891.93777,826 870,776.976199 870,716.5 C870,656.026158 891.93777,607 919,607 C946.06223,607 968,656.026158 968,716.5" id="Fill-113" fill="#614CD4"></path>
            <path d="M918.870919,690 C912.313065,690 907,701.191194 907,714.998841 C907,728.806489 912.313065,740 918.870919,740 C919.263752,740 954,739.877173 954,739.877173 L954,690 L918.870919,690 Z" id="Fill-115" fill="#311E69"></path>
            <path d="M965,714.998841 C965,728.806489 960.074457,740 954,740 C947.925543,740 943,728.806489 943,714.998841 C943,701.191194 947.925543,690 954,690 C960.074457,690 965,701.191194 965,714.998841" id="Fill-117" fill="#614CD4"></path>
            <path d="M1041.01809,722 L956.98191,722 C953.680328,722 951,719.19119 951,715.72584 L951,715.27416 C951,711.80881 953.680328,709 956.98191,709 L1041.01809,709 C1044.32202,709 1047,711.80881 1047,715.27416 L1047,715.72584 C1047,719.19119 1044.32202,722 1041.01809,722" id="Fill-119" fill="#CCCCCC"></path>
            <path d="M568.899524,253.202953 C554.896179,254.681691 541.870748,262.338686 537.374239,303.769213 C534.708063,328.30357 521.753666,509.092817 524.339336,618.317253 C525.364607,661.692003 534.073484,695.164614 542.360888,699.217626 C582.043346,718.617541 626.392797,371.283362 623.899472,318.450801 C621.403779,265.618241 589.331526,251.047146 568.899524,253.202953" id="Fill-121" fill="#FF6161"></path>
            <path d="M362.005142,686.398595 C362.005142,686.398595 363.913461,717.478316 357.174853,724.016192 C352.960077,728.102062 361.002932,733.192455 366.807973,731.749814 C370.292829,730.883261 370.686391,725.347488 373.548869,722.314553 C381.184433,714.227532 380.010611,673.850521 362.005142,686.398595" id="Fill-123" fill="#AD263D"></path>
            <path d="M857.561592,114.270897 C821.439558,122.898585 774.497191,254.499646 774.497191,254.499646 C774.497191,254.499646 606.075526,356.304951 606,383.571456 C605.903326,419.712692 775.771004,372.873311 839.916923,296.734613 C934.351284,184.638196 910.422471,101.64111 857.561592,114.270897" id="Fill-125" fill="#FF6161"></path>
            <path d="M623.897744,318.768451 C621.361964,265.67948 588.774551,251.037668 568.014361,253.203938 C567.598146,253.248823 567.181932,253.298432 566.765718,253.352766 C574.002553,271.42234 586.775279,308.194596 582.7214,334.066994 C577.15664,369.580121 544.884395,577.199501 547.109818,611.621225 C548.574988,634.285559 549.746644,667.363108 556.742893,692 C592.181253,635.925026 626.106326,365.02552 623.897744,318.768451" id="Fill-127" fill="#AD263D"></path>
            <path d="M530.965331,673.731863 C530.965331,673.731863 520.606169,707.267617 521.011597,714.242642 C521.414722,721.220005 525.860616,731 539.207511,731 C542.939298,731 545.913209,730.663404 548.262852,730.179546 C552.591264,729.288968 555.491461,725.111901 554.770443,720.694073 C553.814461,714.848048 556.560318,706.998807 558.216586,698.167827 C563.473337,670.120465 540.919065,660.786927 530.965331,673.731863" id="Fill-129" fill="#FF6161"></path>
            <path d="M570.699262,392.070881 C577.468414,385.01129 604.750003,379.390857 603.21741,377.615745 C601.527505,375.661305 597.120406,376.346835 589.478891,378.081088 C581.842144,379.815341 576.429206,372.313107 585.450769,371.781935 C594.474716,371.250764 600.607472,365.875487 610.477563,362.350232 C615.983458,360.384442 636.524497,358.974794 641.131811,370.052222 C643.067216,374.71246 641.372545,381.045662 639.873321,383.73103 C633.585637,395.005945 601.103241,399.541335 586.876105,399.988518 C578.369378,400.254104 567.064418,395.861722 570.699262,392.070881" id="Fill-131" fill="#FF6161"></path>
            <path d="M1125,269.95199 C1110.96613,227.401452 1043.41836,92.147344 985.677243,56.0349119 C985.663034,56.0302262 985.648824,56.0278834 985.634615,56.0231977 C973.616071,55.7326864 954.843459,58.0075775 940.132287,72.179376 C916.578308,94.8673734 906.719549,88.7408644 917.127727,112.394109 C927.533537,136.047354 938.486398,134.517484 943.416961,173.752913 C944.03269,178.658806 945.138633,183.456928 946.597435,188.098081 C956.508294,219.606846 983.266429,243.018778 1015.76978,250.424474 C1042.67948,256.555669 1077.80442,269.722392 1081.85165,297 C1102.16121,293.584149 1118.26488,285.7544 1125,269.95199" id="Fill-133" fill="#311E69"></path>
            <path d="M867.235725,113.075937 C860.399807,119.285486 843.33963,136.467041 841.631243,154.700383 C839.491612,177.557357 842.780435,177.557357 831.819271,198.781353 C820.858108,220.00535 791.813156,270.06057 785.23788,279.867844 C778.660234,289.675119 660.942644,357.126016 642.446569,376.387616 C634.800292,384.347791 629.795973,390.6044 627,395.87981 C674.152433,398.541045 790.85826,356.744831 841.631243,296.738804 C931.65211,190.348227 914.591933,110.181756 867.235725,113.075937" id="Fill-135" fill="#AD263D"></path>
        </g>
        <g id="Group-27" transform="translate(0.000000, 675.000000)">
            <path d="M35,219 L53.41957,313.055866 C53.3835986,318.902746 71.2748397,323.850452 108.199412,323.996567 C145.121735,324.142683 163.073678,319.60635 163.107401,313.754974 L184,219.427108 L35,219 Z" id="Fill-1" fill="#FF8F8F"></path>
            <path d="M30.4551999,197 L30,229.349307 C29.9552,236.737896 64.9664012,242.848471 108.195089,242.997235 C151.423777,243.145998 186.502242,237.274346 186.542601,229.883503 L187,197.53645 L30.4551999,197 Z" id="Fill-3" fill="#D95F76"></path>
            <path d="M189,197.771655 C188.954988,205.224529 153.776787,211.147268 110.422421,210.99721 C67.0680546,210.849426 31.9573142,204.685685 32,197.230537 C32.0427637,189.775389 67.2232129,183.854923 110.577579,184.002708 C153.929697,184.152765 189.042686,190.316506 189,197.771655" id="Fill-5" fill="#D95F76"></path>
            <path d="M48,205.438178 C62.2280787,208.732534 84.8538994,210.909203 110.351278,210.997263 C135.987315,211.085323 158.747321,209.041874 173,205.815256 C165.546025,199.104614 140.446729,194.103243 110.590575,194.001635 C80.6516737,193.897769 55.4427925,198.752373 48,205.438178" id="Fill-7" fill="#311E69"></path>
            <g id="Group-11" transform="translate(97.000000, 0.000000)">
                <mask id="mask-14" fill="white">
                    <use xlink:href="#path-13"></use>
                </mask>
                <g id="Clip-10"></g>
                <path d="M1.52654419,112.973686 C1.52654419,112.973686 15.7816276,27.6541158 43.6937428,-0.000226155888 C43.6937428,-0.000226155888 62.1055126,86.1855212 58.5423124,119.880487 C54.9791122,153.573191 45.4764842,172.990936 20.5318003,165.340082 C-4.41288366,157.69149 -0.518700756,123.752276 1.52654419,112.973686" id="Fill-9" fill="#2E88BF" mask="url(#mask-14)"></path>
            </g>
            <path d="M109,202.290044 C109,202.290044 113.089617,120.203168 160.029428,84.163325 C206.973779,48.1234815 230,49.0018978 230,49.0018978 C230,49.0018978 176.857679,189.444895 152.944088,202.290044 C129.030497,215.137445 109,202.290044 109,202.290044" id="Fill-12" fill="#4CB4D4"></path>
            <path d="M69.862609,115.529676 C69.862609,115.529676 45.8867752,28.5685505 41.8889068,14 C41.8889068,14 0.597319561,117.29419 37.0059098,153.934999 C73.4145001,190.573546 72.5589517,125.311417 69.862609,115.529676" id="Fill-14" fill="#2E88BF"></path>
            <path d="M119,208.620896 C119,208.620896 115.56159,125.664071 110.190494,95.0321525 C104.819398,64.4002336 69.9561033,32 69.9561033,32 C69.9561033,32 43.3663397,122.720654 61.0943628,161.009987 C78.8223859,199.301583 90.6387968,214.994527 119,208.620896" id="Fill-16" fill="#4CB4D4"></path>
            <g id="Group-20" transform="translate(0.000000, 83.000000)">
                <mask id="mask-16" fill="white">
                    <use xlink:href="#path-15"></use>
                </mask>
                <g id="Clip-19"></g>
                <path d="M86.6440327,90.2991935 L-0.000675750339,0 C-0.000675750339,0 0.816982159,65.6707065 30.4801695,93.8172268 C60.1433569,121.963747 62.6661581,123.302448 95.4175246,123.989828 C128.164386,124.677208 86.6440327,90.2991935 86.6440327,90.2991935" id="Fill-18" fill="#4CB4D4" mask="url(#mask-16)"></path>
            </g>
            <path d="M204,76 C186.116502,99.3230475 169.00548,123.253525 153.028031,148.032154 C145.074731,160.448465 137.416251,173.085251 130.502822,186.284471 C127.074676,192.905454 123.820222,199.654672 121.015998,206.759349 C121.009142,206.775097 121.006856,206.790845 121,206.806593 C124.63155,207.654745 128.955586,208.187933 133.780131,207.938212 C135.654184,202.17888 137.818487,196.424046 140.211334,190.720957 C145.84035,177.460994 152.353829,164.419255 159.205551,151.543997 C172.993557,125.818228 188.077402,100.645894 204,76" id="Fill-21" fill="#82E3F9"></path>
            <path d="M105.517732,195.212031 C102.001801,189.121924 98.5846842,182.939984 95.8638594,176.726686 C93.356748,170.679136 91.5643128,163.713254 89.9396311,156.919839 C86.6764797,143.221018 84.2176262,129.219819 81.9495062,115.211901 C79.7020682,101.192783 77.7280914,87.1131904 76,73 C76.5400286,87.2050236 77.3213465,101.410047 78.3899137,115.610591 C79.4837588,129.813375 80.7568474,144.007199 82.9008757,158.221182 C84.0108068,165.368491 85.1345258,172.37469 87.4577977,179.737022 C89.8798832,186.819375 92.8603813,193.426884 95.9465872,199.989596 C97.1208621,202.451173 98.3962487,204.838835 99.6072915,207.273534 C103.640271,208.12915 108.057015,208.227703 113,207.575912 C110.449227,203.472537 107.932923,199.360203 105.517732,195.212031" id="Fill-23" fill="#82E3F9"></path>
            <path d="M70.8342005,194.416896 C64.2192161,187.542407 57.9627125,180.15937 51.9406868,172.565194 C39.8650711,157.390465 28.60111,141.418858 18,125 C26.5652099,142.597147 35.8631634,159.87645 46.1937218,176.658557 C51.3477281,185.058692 56.7858134,193.324878 62.7965661,201.311817 C62.9453694,201.507063 63.0986819,201.700039 63.2497399,201.895286 C68.872702,204.433488 74.7932709,205.48464 83,206 C78.81547,202.421997 74.7526882,198.480744 70.8342005,194.416896" id="Fill-25" fill="#82E3F9"></path>
        </g>
    </g>
</svg>