<svg xmlns="http://www.w3.org/2000/svg" viewBox="0 0 481.86 349.65"><g id="Layer_2" data-name="Layer 2"><g id="_1" data-name=" 1"><path d="M464.51,104.13s17.93,5.72,17.34,34.94-63.43,77.38-63.43,77.38,8.07,21,15.58,40.26c8.1,20.79,17,67.37,6,70.18-25.56,6.56-71.47-63.2-71.47-111.38,0-37.68,40.29-94.92,40.29-94.92Z" style="fill:#1e1240"/><path d="M390.93,26.52S278.41,78.84,264,84.5c-11.37,4.48-11.82,10.88-4.53,15.77s87.75-15,105-19.5S390.93,26.52,390.93,26.52Z" style="fill:#ad263d"/><path d="M425.13,332.81c1.07-3.31,5.77-6.63,5.77-6.63l-1.14-3.57,11.92-.8L443,329a11.77,11.77,0,0,1-5.35,5.11C432.36,336.8,424.07,336.12,425.13,332.81Z" style="fill:#ff6161"/><path d="M409,340.25c-2.37-8.1,21.89-14.07,21.89-14.07s2.47,4.82,7.6,4.82c1.44,0,4.46-2,4.46-2s7.44,7,5.07,10.22C444.69,343.71,409.46,341.8,409,340.25Z" style="fill:#311e69"/><path d="M361.47,332.81c1.07-3.31,5.77-6.63,5.77-6.63l-1.14-3.57,11.92-.8L379.3,329A11.77,11.77,0,0,1,374,334.1C368.7,336.8,360.41,336.12,361.47,332.81Z" style="fill:#ff6161"/><path d="M345.35,340.25c-2.37-8.1,21.89-14.07,21.89-14.07s2.46,4.82,7.6,4.82c1.44,0,4.46-2,4.46-2s7.44,7,5.07,10.22C381,343.71,345.8,341.8,345.35,340.25Z" style="fill:#311e69"/><path d="M405,122.22s-52,40.11-60.91,71.11,11.35,134,30.13,134c23.15,0,2.17-98.95,18.42-113.33,13.54-12,84.47-64.8,71.66-86.9C459.28,118.42,440.89,118,405,122.22Z" style="fill:#311e69"/><path d="M358,13.48s1.69,4.38,2.93,8.91,3.13,7.75,6.37,7.79c5.58.06,10.43-8.1,7-13.27S358,13.48,358,13.48Z" style="fill:#ff6161"/><path d="M374.56,17.47c-1.22,2.63-1.77,6-3.93,8.13a10.41,10.41,0,0,1-6.91,2.87,4.69,4.69,0,0,0,3.53,1.71C372.63,30.24,377.31,22.65,374.56,17.47Z" style="fill:#ad263d"/><path d="M391.54,28.42S377,13.54,369.93,14.61s3.72,23,7.06,22.64S391.54,28.42,391.54,28.42Z" style="fill:#ff6161"/><path d="M377.92,20.5h0a7.87,7.87,0,0,0,1-6.86C377.18,8.36,373.5-.45,368.1,0,360.42.69,351-1.5,350.43,3.81c-1,9.3,7.93,10.15,9.51,13.09s2.36,4.16,3.23,3.26,2.48-1.68,4.77,0S377.92,20.5,377.92,20.5Z" style="fill:#311e69"/><path d="M366.19,11.29a32.41,32.41,0,0,1-9.63,3c1.52.9,2.86,1.64,3.38,2.62,1.58,2.93,2.36,4.16,3.23,3.26s2.48-1.68,4.77,0,10,.3,10,.3a7.87,7.87,0,0,0,1-6.86,38.45,38.45,0,0,0-4.35-9.46C373.46,6.52,370.08,9.34,366.19,11.29Z" style="fill:#1e1240"/><path d="M363.37,21a3.4,3.4,0,0,1-.34-3.71c1.13-1.88,3.32-.29,3.67,3.42S365.15,24.22,363.37,21Z" style="fill:#ff6161"/><path d="M407.74,124.55c-3.39-.19-4.59-8.53-6.39-11.42C379,77.36,357.44,81.49,354.18,68.62c-7.13-28.17,41.73-59.07,63.39-45.25,24.36,15.53,52.79,73.09,58.71,91.22C468.38,133.32,430,125.83,407.74,124.55Z" style="fill:#614cd4"/><path d="M164.14,136.45c-2.9,10-16.7,79.09-17.42,125-.28,18.23,2.8,32.43,6.19,34.27,16.22,8.79,44.15-134.84,44-157.06-.15-19.45-21.89-23.9-28.66-15C166.76,125.55,165,133.71,164.14,136.45Z" style="fill:#ff6161"/><path d="M196.88,138.66c-.1-13.56-9.46-22.41-18.27-21.77-1.9,6.9-5.31,20.36-5.85,30.09-.76,13.62-1.69,28.91-5.59,42.75-3.46,12.29-2.95,57.61-20.35,67.41,0,1.46-.08,2.9-.1,4.31-.28,18.23,2.8,32.43,6.19,34.27C169.13,304.51,197.06,160.88,196.88,138.66Z" style="fill:#ad263d"/><path d="M192.68,143l-22.05-7.17s-5.78,18,6.94,32.85a97.58,97.58,0,0,0,13.37,13.12c2.46-13.41,4.3-25.25,5.24-33.56Z" style="fill:#311e69"/><path d="M226.6,134.46c.67,17.23,33.22,14.84,46.81,3.71-11.08-19.16-15.67-39.41-38.7-40.6-.55,0-1.13,0-1.72-.06C230.75,104.41,226.07,120.67,226.6,134.46Z" style="fill:#ad263d"/><path d="M198.6,137c12.75,5.46,20.89-29.94,22.74-39-10.68,1.11-23.42,4-34.25,9.5C186.69,113.86,186.65,131.88,198.6,137Z" style="fill:#ff6161"/><path d="M308,182.56c-9-16.6-25.83-29.27-34.51-44.23l-.09-.16c-13.59,11.13-46.14,13.52-46.81-3.71-.53-13.79,4.15-30.05,6.39-36.95a92.71,92.71,0,0,0-11.65.52c-1.85,9-10,44.43-22.74,39-11.95-5.12-11.91-23.14-11.51-29.47-7.77,3.93-14.55,9.2-18.87,16.11a79.52,79.52,0,0,0,7,31.46,26.7,26.7,0,0,0,10.63,11.75,26.31,26.31,0,0,1,8.47,7.57c12.56,17.68,14.45,27.71,14.45,27.71s56.94,22.47,69.26,18.48C298.73,213.92,325,213.77,308,182.56Z" style="fill:#ff9791"/><path d="M226.6,134.46c.67,17.23,33.22,14.84,46.81,3.71-11.08-19.16-15.67-39.41-38.7-40.6-.55,0-1.13,0-1.72-.06C230.75,104.41,226.07,120.67,226.6,134.46Z" style="fill:#ad263d"/><path d="M198.6,137c12.75,5.46,20.89-29.94,22.74-39-10.68,1.11-23.42,4-34.25,9.5C186.69,113.86,186.65,131.88,198.6,137Z" style="fill:#ff6161"/><path d="M308,182.56c-9-16.6-25.83-29.27-34.51-44.23l-.09-.16c-13.59,11.13-46.14,13.52-46.81-3.71-.53-13.79,4.15-30.05,6.39-36.95a92.71,92.71,0,0,0-11.65.52c-1.85,9-10,44.43-22.74,39-11.95-5.12-11.91-23.14-11.51-29.47-7.77,3.93-14.55,9.2-18.87,16.11a79.52,79.52,0,0,0,7,31.46,26.7,26.7,0,0,0,10.63,11.75,26.31,26.31,0,0,1,8.47,7.57c12.56,17.68,14.45,27.71,14.45,27.71s56.94,22.47,69.26,18.48C298.73,213.92,325,213.77,308,182.56Z" style="fill:#ff9791"/><path d="M149,284.9s-5,14-4.93,17,1.8,7.16,7.52,7.38a19.26,19.26,0,0,0,3.89-.2,3.51,3.51,0,0,0,3-3.89c-.31-2.49,1-5.76,1.85-9.46C163,283.92,153.48,279.6,149,284.9Z" style="fill:#ad263d"/><path d="M294.69,245.21s-11.76,6.26-23.68,0,13.68-37.84,21.3-30S294.69,245.21,294.69,245.21Z" style="fill:#311e69"/><path d="M224.75,191.81s52.83,8.66,50.36,28.84c-2.1,17.13-69.58,17.68-90.88,17.45-2.11,0,6.29,18.78,7.83,31.33.64,5.28-2.45,16.42-3.91,27.95-2.2,17.41-3.32,35.67-3.32,35.67L170,329.62S154.49,268.43,151.2,236C148.48,209.13,175,175.55,224.75,191.81Z" style="fill:#ff6161"/><path d="M184.23,238.1c16.17.18,59-.1,79.56-7.75l-2.11-27c-.94-.5-1.9-1-2.89-1.45l-71.88,12.87s-3.21,6.89-12.17,13.34-13.37,6.45-12.21,13.39,16.89,50,16.89,59c0,5.52-5,18.12-7.2,29.59l12.61,2.91s1.12-18.26,3.32-35.67c1.46-11.53,4.55-22.67,3.91-27.95C190.52,256.88,182.12,238.08,184.23,238.1Z" style="fill:#ad263d"/><path d="M179.42,190.43s13.32,41.17,14,51.11c0,0,64-1.67,70.93-10.55s-4.21-36.3-42.56-42C197.16,185.42,194.32,186,179.42,190.43Z" style="fill:#311e69"/><path d="M204.91,89.26l8.19,16.17c.38,2.47-11.9,11.26-16.26,8.7-1.27-.74-1.3-3.15-.6-5.88l4.35-14.89Z" style="fill:#ff6161"/><path d="M199.71,96.35c2.65-.88,6.27-2.13,6.27-2.13a11.92,11.92,0,0,1-2.93,8.19,11.32,11.32,0,0,1-6.18,3.67Z" style="fill:#311e69"/><path d="M278.07,220.61c20.66-6.69,46.93-6.84,29.94-38.05-9-16.6-25.83-29.27-34.51-44.23l-.09-.16c-7.16,5.86-19.57,9.29-29.82,8.72,6.52,9.88,13.92,22.58,16.78,32.92,2.8,10.13,5.13,26.67,6.75,40.58C271.89,221.18,275.76,221.36,278.07,220.61Z" style="fill:#d95f76"/><path d="M188.9,90.42s-8.9-15,1-17.5c6.18-1.54,8.89,2.17,8.89,2.17A8.62,8.62,0,0,1,206.9,82c1.52,7.16-1,9.14-1,9.14l-.74-1.45Z" style="fill:#311e69"/><path d="M198.5,216.45a33.27,33.27,0,0,0-11.59-1.64c3.15,10.82,6.17,22.12,6.46,26.73,0,0,64-1.67,70.93-10.55,2.43-3.1,2.64-8.48.25-14.41C242.88,221.62,212.08,220.43,198.5,216.45Z" style="fill:#1e1240"/><path d="M200.22,83.5l5.21,9a6.34,6.34,0,0,1-2.81,8.38,17.62,17.62,0,0,1-7.52,1.92c-2.83.25-4.81-2.1-5.58-5.72a34.46,34.46,0,0,1-.22-11.75C190.12,79.71,196.39,77.89,200.22,83.5Z" style="fill:#ff6161"/><path d="M201.12,88.32a8.74,8.74,0,0,0-.22-1.91c-.26-1.2-.35-3,1.61-2.54,2.85.73,3.85,7.18,1,8.29C201.38,93,201.12,89.94,201.12,88.32Z" style="fill:#ff6161"/><path d="M195.42,91.86a16.91,16.91,0,0,1-5.48,1.33s.36,2.12,1.79,2.58S195.19,94.53,195.42,91.86Z" style="fill:#fff"/><path d="M193.48,99.37c3-1.28,6.3,2.9,10.85-2.7.85-1,1-3.14,1-4.38l.11.19a6.34,6.34,0,0,1-2.81,8.38,17.62,17.62,0,0,1-7.52,1.92,4.43,4.43,0,0,1-4.15-2.15A15,15,0,0,0,193.48,99.37Z" style="fill:#ad263d"/><path d="M278.62,187.69c17.64.51,32.21,14.38,33,32,0,.31,0,.63,0,1,.39,20.32-30.68,24-30.68,24s15.51,14.92,16.68,28.21c.52,5.86,1.38,24.36.52,35.3-1.09,13.88-3.8,22.34-3.8,22.34l-12.8,2.58s-18-38.51-24.57-49c-9.31-15-18.48-37.12-21.36-48.8C229.88,211.91,240,186.58,278.62,187.69Z" style="fill:#ff6161"/><path d="M281.57,333.05l12.8-2.58s2.71-8.46,3.8-22.34c.86-10.94,0-29.44-.52-35.3C296.48,259.54,281,244.62,281,244.62s31.07-3.65,30.68-24c0-.32,0-.64,0-1-.79-17.63-10.25-26.45-27.89-27,0,0-10.89-2.34-10.52.83.65,5.48.36,12.64-4,17.67-8.1,9.25-3.47,17.12-6.94,24.29s8.37,45,13,60.9c1.61,5.58,1.35,15.14,1,25.35C279.37,328.35,281.57,333.05,281.57,333.05Z" style="fill:#ad263d"/><path d="M315.53,217.14c2.09-17.45-2.06-29.07-36.7-29.44-11.54-.12-20.54,1.63-27.35,5.23,8.92,1.44,25.85,5.21,32.33,15.74,13.29,21.59,8.7,33.15,8.7,33.15a17.07,17.07,0,0,1,2.18,3.39C303.24,242,313.72,232.29,315.53,217.14Z" style="fill:#311e69"/><path d="M386.5,94.32c4.6-21.82-5.63-33.64-5.63-33.64l-12,20.62A82,82,0,0,1,386.5,94.32Z" style="fill:#311e69"/><path d="M235.27,100.34c4.07,1.07,15-3,14.92-2s-1.85,1.86-5,3-3.22,5.1.09,3.24,6.75-1.26,11.07-2.2c2.41-.52,10-4.68,9-9.82a8.27,8.27,0,0,0-3.71-4.78c-4.91-2.74-17.44,3-22.57,6C236,95.56,233.09,99.76,235.27,100.34Z" style="fill:#ad263d"/><path d="M179.2,315.82a10.16,10.16,0,0,0-7,1,8.4,8.4,0,0,0-4.61,7.48c-.06,3.15-.95,7.46-4.88,10.22-.88.62-13.74,6.73-14.58,7.38-10.29,7.88,33.13,4.17,38.15.67,3.46-2.42.1-8.14.93-15.33C187.59,323.6,182.74,316.8,179.2,315.82Z" style="fill:#311e69"/><path d="M277.66,315.9c-5.15,2.38,1.69,12-6.65,17.15-.92.57-14.25,8.61-15.09,9.25-10.29,7.88,33.14,4.17,38.16.67,3.45-2.41,1.33-9.82,1.19-17.06C295.08,315.52,282,313.9,277.66,315.9Z" style="fill:#311e69"/><rect y="300.55" width="40.79" height="5.27" rx="2.54" style="fill:#ccc"/><path d="M30.76,256.71c-11.51,0-20.83,20.81-20.83,46.47s9.32,46.47,20.83,46.47c.69,0,12.87-.23,12.87-.23V256.71Z" style="fill:#311e69"/><ellipse cx="45.7" cy="303.18" rx="20.83" ry="46.47" style="fill:#614cd4"/><path d="M53.9,256.71c-11.5,0-20.83,20.81-20.83,46.47s9.33,46.47,20.83,46.47c.69,0,12.88-.23,12.88-.23V256.71Z" style="fill:#311e69"/><ellipse cx="68.84" cy="303.18" rx="20.83" ry="46.47" style="fill:#614cd4"/><path d="M74.9,300.55H358.4a0,0,0,0,1,0,0v5.27a0,0,0,0,1,0,0H74.9a2.54,2.54,0,0,1-2.54-2.54v-.18A2.54,2.54,0,0,1,74.9,300.55Z" style="fill:#ccc"/><path d="M350.93,256.71c-11.5,0-20.83,20.81-20.83,46.47s9.33,46.47,20.83,46.47c.69,0,12.88-.23,12.88-.23V256.71Z" style="fill:#311e69"/><ellipse cx="365.87" cy="303.18" rx="20.83" ry="46.47" style="fill:#614cd4"/><path d="M374.07,256.71c-11.5,0-20.82,20.81-20.82,46.47s9.32,46.47,20.82,46.47c.7,0,12.88-.23,12.88-.23V256.71Z" style="fill:#311e69"/><ellipse cx="389.02" cy="303.18" rx="20.83" ry="46.47" style="fill:#614cd4"/><path d="M389.4,292.39c-2.67,0-4.83,4.83-4.83,10.79S386.73,314,389.4,314l14.31-.06V292.39Z" style="fill:#311e69"/><ellipse cx="404.19" cy="303.18" rx="4.83" ry="10.79" style="fill:#614cd4"/><rect x="403.23" y="300.55" width="40.79" height="5.27" rx="2.54" style="fill:#ccc"/><path d="M240.84,106.47c-5.91.63-11.41,3.89-13.31,21.51-1.13,10.44-6.6,87.34-5.51,133.8.44,18.45,4.11,32.69,7.61,34.41,16.76,8.25,35.49-139.49,34.44-162S249.47,105.55,240.84,106.47Z" style="fill:#ff6161"/><path d="M153.38,290.3s.84,12.84-2.11,15.54c-1.84,1.69,1.68,3.79,4.21,3.19,1.53-.35,1.7-2.64,3-3.89C161.77,301.8,161.25,285.12,153.38,290.3Z" style="fill:#ad263d"/><path d="M364,47.88c-15.31,3.67-35.21,59.61-35.21,59.61s-71.4,43.27-71.43,54.85c0,15.37,72-4.54,99.16-36.9C396.59,77.79,386.45,42.52,364,47.88Z" style="fill:#ff6161"/><path d="M264.07,134.23c-1.05-22.48-14.6-28.68-23.23-27.76l-.52.06c3,7.65,8.32,23.22,6.64,34.17-2.32,15-15.73,102.92-14.81,117.49.61,9.6,1.1,23.6,4,34C250.89,268.48,265,153.81,264.07,134.23Z" style="fill:#ad263d"/><path d="M225.26,285.41s-4.5,14.34-4.32,17.33,2.1,7.17,7.9,7.17a19.49,19.49,0,0,0,3.93-.36,3.54,3.54,0,0,0,2.82-4.05c-.41-2.51.78-5.86,1.5-9.64C239.37,283.86,229.58,279.87,225.26,285.41Z" style="fill:#ff6161"/><path d="M242.59,166.65c2.84-3.11,14.28-5.59,13.64-6.37s-2.56-.56-5.76.21-5.48-2.54-1.69-2.78,6.36-2.6,10.5-4.15c2.31-.87,10.93-1.49,12.86,3.39a8.31,8.31,0,0,1-.53,6c-2.64,5-16.27,7-22.23,7.16C245.81,170.25,241.06,168.32,242.59,166.65Z" style="fill:#ff6161"/><path d="M476.28,114.6c-5.93-18.17-34.45-75.9-58.83-91.31h0c-5.08-.12-13,.85-19.22,6.9-9.94,9.68-14.1,7.07-9.71,17.16s9,9.45,11.1,26.19a35.77,35.77,0,0,0,1.34,6.13,39.73,39.73,0,0,0,29.21,26.6c11.37,2.62,26.2,8.24,27.91,19.88C466.63,124.68,473.43,121.34,476.28,114.6Z" style="fill:#311e69"/><path d="M367.37,47.38c-2.89,2.64-10.09,9.94-10.81,17.69-.9,9.72.49,9.72-4.14,18.74s-16.88,30.29-19.66,34.46-52.46,32.83-60.26,41a40.1,40.1,0,0,0-6.52,8.28c19.9,1.13,69.15-16.63,90.58-42.13C394.55,80.22,387.35,46.15,367.37,47.38Z" style="fill:#ad263d"/></g></g></svg>