<svg xmlns="http://www.w3.org/2000/svg" xmlns:xlink="http://www.w3.org/1999/xlink" viewBox="0 0 463.22 364.28"><defs><linearGradient id="_14" x1="139.71" y1="170.26" x2="227.71" y2="298.6" gradientUnits="userSpaceOnUse"><stop offset="0" stop-color="#fff"/><stop offset="0.21" stop-color="#e7e6e9"/><stop offset="0.54" stop-color="#c7c4ca"/><stop offset="0.82" stop-color="#b2afb7"/><stop offset="1" stop-color="#aba7b0"/></linearGradient><linearGradient id="_4" x1="2860.74" y1="-1847.94" x2="2877.38" y2="-1847.94" gradientTransform="matrix(-0.88, 0.47, 0.47, 0.88, 3615.51, 318.68)" gradientUnits="userSpaceOnUse"><stop offset="0" stop-color="#fff"/><stop offset="0.09" stop-color="#f2eef6"/><stop offset="0.39" stop-color="#cbbfdb"/><stop offset="0.65" stop-color="#af9cc8"/><stop offset="0.86" stop-color="#9e87bc"/><stop offset="1" stop-color="#987fb8"/></linearGradient><linearGradient id="_14-2" x1="221.63" y1="120.08" x2="303.12" y2="120.08" xlink:href="#_14"/><linearGradient id="_14-3" x1="281.29" y1="82.82" x2="370.29" y2="167.82" xlink:href="#_14"/><linearGradient id="_14-4" x1="230.93" y1="184.26" x2="335.6" y2="300.26" xlink:href="#_14"/></defs><g style="isolation:isolate"><g id="Layer_2" data-name="Layer 2"><g id="_1" data-name=" 1"><path d="M336.7,44.08s.13-8,13.38-4.84,4.88,7.75,0,7.38A107.43,107.43,0,0,1,336.7,44.08Z" style="fill:#ff623b"/><path d="M303.12,238.62s-15,8-30.29,0,17.5-48.41,27.25-38.33S303.12,238.62,303.12,238.62Z" style="fill:#3b2c68"/><path d="M207.14,171.89s74.1,9.49,70.94,35.3c-2.68,21.93-93.34,22.6-120.58,22.3a3.1,3.1,0,0,0-2.34,5.18c5.86,6.57,14.7,18.87,16.67,34.94.83,6.75-3.14,21-5,35.75C164,327.62,162.58,351,162.58,351l-19-4.38S103.22,260.92,99,219.42C95.53,185.05,143.49,151.08,207.14,171.89Z" style="fill:#ff623b"/><path d="M39.81,51.22H2.75A2.75,2.75,0,0,1,0,48.48H0a2.75,2.75,0,0,1,2.75-2.75H39.81a2.75,2.75,0,0,1,2.75,2.75h0A2.75,2.75,0,0,1,39.81,51.22Z" style="fill:#ccc"/><path d="M32.09,0c-12,0-21.73,21.7-21.73,48.48S20.09,97,32.09,97c.72,0,13.43-.23,13.43-.23V0Z" style="fill:#3b2c68"/><ellipse cx="47.67" cy="48.48" rx="21.73" ry="48.48" style="fill:#9388ff"/><path d="M56.23,0C44.23,0,34.5,21.7,34.5,48.48S44.23,97,56.23,97c.72,0,13.44-.23,13.44-.23V0Z" style="fill:#3b2c68"/><ellipse cx="71.82" cy="48.48" rx="21.73" ry="48.48" style="fill:#9388ff"/><path d="M110.69,50.28s-6.44,109,53.56,121,17.48-112.44-3.41-97.48C155.09,77.91,147.91,99,147.91,99s-17.56-44.81-29.23-48.67Z" style="fill:#ff623b"/><path d="M373.9,51.22H78.24a2.75,2.75,0,0,1-2.75-2.74h0a2.75,2.75,0,0,1,2.75-2.75H373.9Z" style="fill:#ccc"/><path d="M163.26,114.66s13.24,37.9,22.28,53.13c4.86-3.86,7.62-10,8.81-17.46Z" style="fill:#3b2c68"/><path d="M207.14,171.89c-26.17-8.56-49.69-7.85-68.07-1.66,8.45,8.43,29.53,36.16,37.51,63.54,37-.55,99.29-8.51,101.5-26.58C281.24,181.38,207.14,171.89,207.14,171.89Z" style="fill:#3b2c68"/><g style="mix-blend-mode:multiply"><path d="M275.94,198.26a21.48,21.48,0,0,0-3.23-3.91,41.27,41.27,0,0,0-8.28-6q-1.38-.78-2.85-1.53a120.28,120.28,0,0,0-19.74-7.54c-19.93,8-46.39,17.57-63,19.41-29.55,3.27-61.23-1.4-57.23,25.6,3.2,21.53-4.1,30.55-14.41,30.62,13,42,36.42,91.71,36.42,91.71l19,4.38s1.44-23.37,4.25-45.63c1.87-14.76,5.83-29,5-35.75-2-16.07-10.81-28.37-16.67-34.94a3.1,3.1,0,0,1,2.34-5.18c4.44,0,10.57.07,17.72,0,.48,1.43.94,2.87,1.36,4.3,35.53-.53,94.44-7.9,101-24.51l.06-.15c.09-.24.17-.49.24-.73l.06-.25a7.42,7.42,0,0,0,.18-.94A13.31,13.31,0,0,0,275.94,198.26Z" style="fill:url(#_14)"/></g><path d="M223.82,194.48a64,64,0,0,1-23.62-20c-19.7-26.87-56.71-79.94-39.36-100.71,18.07-21.63,86.48-38,118.67.56,6.45,7.72-2.12,49.28,21.43,88.85,8.47,14.23-9.36,30.22-25.53,33.81C254.76,201.62,239.15,201.87,223.82,194.48Z" style="fill:#ffb66e"/><path d="M221,41.28l3.86,18.13c-.27,2.54-14.71,8-18.34,4.36-1.07-1.08-.46-3.47.94-6l8.19-13.59Z" style="fill:#ff623b"/><path d="M214,46.94c2.86-.18,6.75-.47,6.75-.47a12.17,12.17,0,0,1-5,7.33,11.65,11.65,0,0,1-7.06,2Z" style="fill:#3b2c68"/><path d="M204.88,38.25s-9.49-6.56-8.82-16c.43-6,10.13-12.26,17.19-6.72,4.82,3.78,5.45,10.13,5.45,10.13s6.3,2,4.93,7.05-2.56,13.76-9.62,13S204.88,38.25,204.88,38.25Z" style="fill:#3b2c68"/><path d="M217.87,34.36l2.81,10.25a6.49,6.49,0,0,1-5,7.55c-2.74.6-4.5.51-7.94-.08-2.86-.49-4.2-3.33-4-7.11a35.42,35.42,0,0,1,2.86-11.67C208.88,28,215.56,27.82,217.87,34.36Z" style="fill:#ff623b"/><path d="M213.76,29.7s4.68,3.42,1.44,8.28c-1.61,2.42,1,3.94,2.31,1.39s3.27-6.39,2.06-7.58S213.76,29.7,213.76,29.7Z" style="fill:#3b2c68"/><path d="M217.51,39.37a9.16,9.16,0,0,0,.27-1.95c.07-1.25.45-3.09,2.26-2.09,2.63,1.47,1.93,8.1-1.19,8.46C216.54,44.05,217.08,41,217.51,39.37Z" style="fill:#ff623b"/><path d="M211,41.37a17.55,17.55,0,0,1-5.77-.11s-.2,2.19,1.1,3S210,44,211,41.37Z" style="fill:#fff"/><path d="M207.06,48.29c3.26-.49,5.47,4.52,11.43.17,1.11-.81,1.78-2.86,2.13-4.07l.06.22a6.49,6.49,0,0,1-5,7.55c-2.74.6-4.5.51-7.94-.08a4.5,4.5,0,0,1-3.53-3.2C204.81,49,206.07,48.44,207.06,48.29Z" style="mix-blend-mode:multiply;fill:url(#_4)"/><path d="M243.43,104.64s1.48,35.31,18.48,43.64,16.27-7.66,16.27-7.66Z" style="fill:#3b2c68"/><g style="mix-blend-mode:multiply"><path d="M264.25,173.62c8.16,4.64,17.92,10,27.91,15.4,8.82-6.84,14.21-16.69,8.78-25.81-23.55-39.57-15-81.13-21.43-88.85C265,56.94,243,50.74,221.63,51.17a74.07,74.07,0,0,1,6,20.78C229.58,88.28,232.58,155.62,264.25,173.62Z" style="fill:url(#_14-2)"/></g><path d="M147.16,343.35l-.15-.08a3.92,3.92,0,0,0-5.07,1.39,8.42,8.42,0,0,1-4,3.08c-5.87,2.8-13.13,6.41-13.43,8.38-.51,3.29,33.57,4.2,39.33,1.18,2.72-1.42,1.34-8.78-.87-12.4C161,345.24,151.27,345.64,147.16,343.35Z" style="fill:#fff"/><path d="M302.64,167.2s21.69,14,22.19,40-39.25,30.67-39.25,30.67S305.42,257,306.91,274c.66,7.49,1.77,31.16.67,45.16-1.39,17.76-1,31.88-1,31.88l-16.75-5.13s-2.07-7.7-11.65-23.58c-6.69-11.07-14.9-20.56-23.27-34-11.91-19.12-23.64-47.47-27.33-62.42C219.3,192.32,236.7,155.53,302.64,167.2Z" style="fill:#ff623b"/><path d="M324.83,207.19c-.5-26-22.19-40-22.19-40-24.65-4.36-42.51-1.95-54.79,4.53,11.4,1.84,33.07,6.67,41.36,20.14,17,27.62,11.13,42.41,11.13,42.41s2.57,3.26,2.78,4.34C314.06,234.52,325.11,221.8,324.83,207.19Z" style="fill:#3b2c68"/><path d="M259.58,59.73C281.91,65,298.25,89.28,321.92,119c0,0-3.42-39.47,16.33-70h12.67s28.62,70.26,7.33,111.69c-15.42,30-54.4,16.13-95.67-20.43C229.73,111.19,243.36,55.91,259.58,59.73Z" style="fill:#ff623b"/><g style="mix-blend-mode:multiply"><path d="M348.25,131.15c-4.34,13.67-19.62,27.54-43.95,19.54-20-6.57-50.48-42.13-61.82-56.41.27,15.59,5.75,33.3,20.1,46,41.27,36.56,80.25,50.43,95.67,20.43,11.49-22.36,8.44-53.13,3.19-76.71C356.42,106.14,350.45,124.21,348.25,131.15Z" style="fill:url(#_14-3)"/></g><path d="M335.91,59.22s-4.66-7-4.33-11.52,6.5-2.83,9.84-5,5.66.17,3.16,3.17-5,.66-2.5,3,5.27,9.66,3.55,12.5S338.62,64.21,335.91,59.22Z" style="fill:#ff623b"/><path d="M125.62,57s4-6,3.72-9.91-5.59-2.44-8.46-4.31-4.88.15-2.72,2.73,4.3.57,2.15,2.58-4.53,8.32-3.06,10.75S123.28,61.24,125.62,57Z" style="fill:#ff623b"/><path d="M366.1,0c-12,0-21.72,21.7-21.72,48.48S354.1,97,366.1,97c.72,0,13.44-.23,13.44-.23V0Z" style="fill:#3b2c68"/><ellipse cx="381.69" cy="48.48" rx="21.73" ry="48.48" style="fill:#9388ff"/><path d="M390.25,0c-12,0-21.73,21.7-21.73,48.48S378.25,97,390.25,97c.72,0,13.43-.23,13.43-.23V0Z" style="fill:#3b2c68"/><ellipse cx="405.84" cy="48.48" rx="21.73" ry="48.48" style="fill:#9388ff"/><path d="M406.24,37.22c-2.79,0-5,5-5,11.26s2.25,11.25,5,11.25l14.93,0V37.22Z" style="fill:#3b2c68"/><path d="M426.71,48.48c0,6.21-2.26,11.25-5,11.25s-5.05-5-5.05-11.25,2.26-11.26,5.05-11.26S426.71,42.26,426.71,48.48Z" style="fill:#9388ff"/><path d="M460.48,51.22H423.41a2.74,2.74,0,0,1-2.74-2.74h0a2.75,2.75,0,0,1,2.74-2.75h37.07a2.75,2.75,0,0,1,2.74,2.75h0A2.74,2.74,0,0,1,460.48,51.22Z" style="fill:#ccc"/><path d="M108.66,47.53s-2.33-1.25-.83-2.83,7-2.25,10.42-.92,5.13,2.94,3.83,4.25-4.72-1.75-7.56-1.25S111,48,108.66,47.53Z" style="fill:#ff623b"/><path d="M321.92,119s-1.5,15.93,2.91,24.26C324.83,143.28,315.25,134.76,321.92,119Z" style="fill:#3b2c68"/><path d="M147.91,99s-11,18.36-3,35.51Z" style="fill:#3b2c68"/><g style="mix-blend-mode:multiply"><path d="M276.71,199.65c-12.8,1.63-6.27,26.75-7.86,42.52-1.3,12.83-18.19,18.73-34.27,4.64,5.4,13.71,12.83,29.42,20.33,41.47,8.37,13.44,16.58,22.93,23.27,34,9.58,15.88,11.65,23.58,11.65,23.58L306.58,351s-.39-14.12,1-31.88c1.1-14,0-37.67-.67-45.16-1.06-12.11-11.43-25.27-17.31-31.85a36.44,36.44,0,0,0,13.52-3.48c10.94-4.1,22-16.82,21.71-31.43A46.63,46.63,0,0,0,319,185.57C307.64,190.12,286,198.46,276.71,199.65Z" style="fill:url(#_14-4)"/></g><path d="M290.91,343.35l-.15-.08a3.92,3.92,0,0,0-5.07,1.39,8.42,8.42,0,0,1-4,3.08c-5.87,2.8-14.47,16.54,4.62,16.54,12.6,0,15.52-4,21.28-7,2.72-1.42,1.13-9.66-1.08-13.28C304.52,344.36,295,345.64,290.91,343.35Z" style="fill:#fff"/></g></g></g></svg>