<svg xmlns="http://www.w3.org/2000/svg" width="192.126" height="139.41" viewBox="0 0 192.126 139.41">
  <g id="Group_109" data-name="Group 109" transform="translate(-997.804 -134.243)">
    <path id="Path_196" data-name="Path 196" d="M1404.619,238.377s7.151,2.281,6.913,13.93-25.289,30.853-25.289,30.853,3.218,8.362,6.213,16.052c3.228,8.287,6.779,26.86,2.4,27.983-10.19,2.615-28.5-25.2-28.5-44.409,0-15.026,16.065-37.849,16.065-37.849Z" transform="translate(-221.608 -62.614)" fill="#1e1240"/>
    <path id="Path_197" data-name="Path 197" d="M1306.79,160.766s-44.863,20.859-50.592,23.116c-4.534,1.787-4.715,4.337-1.807,6.286s34.987-5.984,41.851-7.772S1306.79,160.766,1306.79,160.766Z" transform="translate(-153.117 -15.948)" fill="#ff623b"/>
    <g id="Group_98" data-name="Group 98" transform="translate(1160.818 262.556)">
      <path id="Path_198" data-name="Path 198" d="M1422.883,460.441a7.065,7.065,0,0,1,2.3-2.643l-.454-1.421,4.753-.319.511,2.86a4.7,4.7,0,0,1-2.136,2.039C1425.764,462.033,1422.457,461.76,1422.883,460.441Z" transform="translate(-1416.389 -456.058)" fill="#ff6161"/>
      <path id="Path_199" data-name="Path 199" d="M1406.716,466.031c-.943-3.228,8.728-5.611,8.728-5.611a3.666,3.666,0,0,0,3.03,1.921,5.207,5.207,0,0,0,1.78-.8s2.963,2.8,2.019,4.076C1420.942,467.41,1406.9,466.649,1406.716,466.031Z" transform="translate(-1406.652 -458.681)" fill="#311e69"/>
    </g>
    <g id="Group_99" data-name="Group 99" transform="translate(1135.435 262.556)">
      <path id="Path_200" data-name="Path 200" d="M1359.221,460.441a7.066,7.066,0,0,1,2.3-2.643l-.454-1.421,4.753-.319.511,2.86a4.7,4.7,0,0,1-2.136,2.039C1362.1,462.033,1358.795,461.76,1359.221,460.441Z" transform="translate(-1352.726 -456.058)" fill="#ff6161"/>
      <path id="Path_201" data-name="Path 201" d="M1343.054,466.031c-.943-3.228,8.728-5.611,8.728-5.611a3.666,3.666,0,0,0,3.03,1.921,5.207,5.207,0,0,0,1.78-.8s2.963,2.8,2.019,4.076C1357.28,467.41,1343.235,466.649,1343.054,466.031Z" transform="translate(-1342.989 -458.681)" fill="#311e69"/>
    </g>
    <path id="Path_202" data-name="Path 202" d="M1364.891,254.889s-20.72,15.989-24.285,28.352,4.524,53.426,12.013,53.426c9.232,0,.865-39.451,7.346-45.186,5.4-4.778,33.677-25.834,28.57-34.645C1386.527,253.371,1379.192,253.192,1364.891,254.889Z" transform="translate(-205.599 -71.914)" fill="#311e69"/>
    <path id="Path_203" data-name="Path 203" d="M1355.757,147.55s.673,1.748,1.167,3.555,1.247,3.091,2.538,3.1c2.225.024,4.159-3.227,2.793-5.289S1355.757,147.55,1355.757,147.55Z" transform="translate(-215.232 -7.934)" fill="#ff6161"/>
    <path id="Path_204" data-name="Path 204" d="M1365.848,151.718c-.486,1.047-.705,2.374-1.567,3.238a4.156,4.156,0,0,1-2.754,1.147,1.86,1.86,0,0,0,1.4.681C1365.078,156.807,1366.946,153.783,1365.848,151.718Z" transform="translate(-218.701 -10.507)" fill="#ad263d"/>
    <path id="Path_205" data-name="Path 205" d="M1374.939,154.326s-5.8-5.931-8.614-5.5,1.48,9.167,2.813,9.025S1374.939,154.326,1374.939,154.326Z" transform="translate(-221.022 -8.753)" fill="#ff6161"/>
    <path id="Path_206" data-name="Path 206" d="M1359.142,142.418h0a3.134,3.134,0,0,0,.387-2.737c-.682-2.106-2.147-5.618-4.3-5.431-3.063.268-6.812-.6-7.048,1.513-.414,3.707,3.162,4.046,3.793,5.217s.941,1.66,1.289,1.3a1.31,1.31,0,0,1,1.9.016C1356.078,142.981,1359.142,142.418,1359.142,142.418Z" transform="translate(-210.657 0)" fill="#311e69"/>
    <g id="Group_100" data-name="Group 100" transform="translate(1139.97 135.91)">
      <path id="Path_207" data-name="Path 207" d="M1358.2,141.259a12.858,12.858,0,0,1-3.839,1.189,3.637,3.637,0,0,1,1.348,1.045c.631,1.171.941,1.66,1.289,1.3a1.31,1.31,0,0,1,1.9.016c.914.685,3.978.122,3.978.122a3.133,3.133,0,0,0,.387-2.737,15.354,15.354,0,0,0-1.733-3.771A7.608,7.608,0,0,1,1358.2,141.259Z" transform="translate(-1354.365 -138.423)" fill="#1e1240"/>
    </g>
    <path id="Path_208" data-name="Path 208" d="M1360.71,152.517a1.36,1.36,0,0,1-.136-1.479c.452-.752,1.326-.118,1.463,1.361S1361.419,153.808,1360.71,152.517Z" transform="translate(-218.025 -9.908)" fill="#ff6161"/>
    <path id="Path_209" data-name="Path 209" d="M1372.918,195.91c-1.354-.077-1.828-3.4-2.547-4.553-8.915-14.264-17.507-12.617-18.807-17.748-2.845-11.233,16.636-23.552,25.274-18.043,9.71,6.192,21.048,29.145,23.407,36.373C1397.1,199.4,1381.8,196.419,1372.918,195.91Z" transform="translate(-212.541 -12.005)" fill="#614cd4"/>
    <path id="Path_210" data-name="Path 210" d="M1151.461,260.36c-1.159,3.969-6.661,31.535-6.947,49.84-.113,7.269,1.115,12.93,2.466,13.662,6.47,3.506,17.6-53.76,17.534-62.623-.06-7.754-8.729-9.528-11.43-5.989C1152.5,256.012,1151.781,259.265,1151.461,260.36Z" transform="translate(-88.21 -71.711)" fill="#ff623b"/>
    <g id="Group_101" data-name="Group 101" transform="translate(1056.297 180.835)">
      <path id="Path_211" data-name="Path 211" d="M1164.515,259.791c-.042-5.407-3.772-8.936-7.285-8.68a66.635,66.635,0,0,0-2.334,12c-.3,5.431-.675,11.527-2.229,17.047-1.38,4.9-1.176,22.97-8.111,26.876q-.027.872-.041,1.72c-.113,7.269,1.115,12.93,2.466,13.662C1153.45,325.92,1164.584,268.653,1164.515,259.791Z" transform="translate(-1144.507 -251.097)" fill="#121212" opacity="0.15"/>
    </g>
    <path id="Path_212" data-name="Path 212" d="M1176.439,272.947l-8.792-2.859s-2.305,7.193,2.767,13.095a38.932,38.932,0,0,0,5.331,5.234c.98-5.348,1.715-10.069,2.09-13.384Z" transform="translate(-101.81 -81.681)" fill="#311e69"/>
    <g id="Group_102" data-name="Group 102" transform="translate(1064.875 173.112)">
      <path id="Path_213" data-name="Path 213" d="M1224.382,246.483c.264,6.869,13.246,5.917,18.662,1.479-4.416-7.638-6.248-15.712-15.43-16.186-.22-.012-.451-.019-.687-.025C1226.035,234.5,1224.17,240.986,1224.382,246.483Z" transform="translate(-1201.102 -231.742)" fill="#ad263d"/>
      <path id="Path_214" data-name="Path 214" d="M1189.414,247.811c5.081,2.175,8.327-11.939,9.065-15.538a40.46,40.46,0,0,0-13.656,3.786C1184.663,238.585,1184.648,245.771,1189.414,247.811Z" transform="translate(-1177.298 -232.056)" fill="#ff6161"/>
      <path id="Path_215" data-name="Path 215" d="M1221.76,265.651c-3.6-6.618-10.3-11.671-13.762-17.638l-.036-.064c-5.416,4.438-18.4,5.391-18.662-1.479-.212-5.5,1.654-11.978,2.546-14.733a37.106,37.106,0,0,0-4.644.209c-.739,3.6-3.984,17.714-9.065,15.538-4.766-2.041-4.751-9.226-4.591-11.752a18.534,18.534,0,0,0-7.525,6.423,31.724,31.724,0,0,0,2.81,12.547,10.634,10.634,0,0,0,4.238,4.682,10.492,10.492,0,0,1,3.376,3.02c5.008,7.051,5.76,11.046,5.76,11.046s22.706,8.962,27.616,7.371C1218.057,278.153,1228.534,278.095,1221.76,265.651Z" transform="translate(-1166.021 -231.73)" fill="#ff9791"/>
    </g>
    <g id="Group_103" data-name="Group 103" transform="translate(1064.875 173.112)">
      <path id="Path_216" data-name="Path 216" d="M1224.382,246.483c.264,6.869,13.246,5.917,18.662,1.479-4.416-7.638-6.248-15.712-15.43-16.186-.22-.012-.451-.019-.687-.025C1226.035,234.5,1224.17,240.986,1224.382,246.483Z" transform="translate(-1201.102 -231.742)" fill="#ad263d"/>
      <path id="Path_217" data-name="Path 217" d="M1189.414,247.811c5.081,2.175,8.327-11.939,9.065-15.538a40.46,40.46,0,0,0-13.656,3.786C1184.663,238.585,1184.648,245.771,1189.414,247.811Z" transform="translate(-1177.298 -232.056)" fill="#ff623b"/>
      <path id="Path_218" data-name="Path 218" d="M1221.76,265.651c-3.6-6.618-10.3-11.671-13.762-17.638l-.036-.064c-5.416,4.438-18.4,5.391-18.662-1.479-.212-5.5,1.654-11.978,2.546-14.733a37.106,37.106,0,0,0-4.644.209c-.739,3.6-3.984,17.714-9.065,15.538-4.766-2.041-4.751-9.226-4.591-11.752a18.534,18.534,0,0,0-7.525,6.423,31.724,31.724,0,0,0,2.81,12.547,10.634,10.634,0,0,0,4.238,4.682,10.492,10.492,0,0,1,3.376,3.02c5.008,7.051,5.76,11.046,5.76,11.046s22.706,8.962,27.616,7.371C1218.057,278.153,1228.534,278.095,1221.76,265.651Z" transform="translate(-1166.021 -231.73)" fill="#ff9791"/>
    </g>
    <path id="Path_219" data-name="Path 219" d="M1143.839,417.8s-1.991,5.578-1.968,6.755a2.9,2.9,0,0,0,3,2.943,7.823,7.823,0,0,0,1.553-.078,1.4,1.4,0,0,0,1.175-1.554,13.4,13.4,0,0,1,.737-3.77C1149.418,417.41,1145.626,415.688,1143.839,417.8Z" transform="translate(-86.626 -169.963)" fill="#ff623b"/>
    <path id="Path_220" data-name="Path 220" d="M1276.38,360.685a10.833,10.833,0,0,1-9.441,0c-4.753-2.494,5.454-15.088,8.493-11.946S1276.38,360.685,1276.38,360.685Z" transform="translate(-161.08 -128.672)" fill="#311e69"/>
    <path id="Path_221" data-name="Path 221" d="M1178.219,323.49s21.064,3.45,20.079,11.5c-.836,6.834-27.745,7.053-36.236,6.961-.843-.009,2.508,7.485,3.121,12.492.258,2.1-.977,6.544-1.558,11.142-.877,6.94-1.325,14.222-1.325,14.222l-5.922-1.365s-6.173-24.4-7.484-37.334C1147.808,330.393,1158.382,317,1178.219,323.49Z" transform="translate(-90.803 -112.768)" fill="#ff623b"/>
    <path id="Path_222" data-name="Path 222" d="M1168.879,350.6c6.448.07,23.514-.041,31.721-3.09l-.841-10.75q-.56-.3-1.151-.578l-28.66,5.132a15.51,15.51,0,0,1-4.854,5.317c-3.573,2.573-5.328,2.573-4.865,5.339s6.733,19.942,6.733,23.527c0,2.2-1.981,7.226-2.87,11.8l5.026,1.159s.448-7.282,1.325-14.222c.581-4.6,1.816-9.038,1.558-11.142C1171.387,358.089,1168.036,350.595,1168.879,350.6Z" transform="translate(-97.619 -121.425)" fill="#121212" opacity="0.152"/>
    <path id="Path_223" data-name="Path 223" d="M1177.225,322.412s5.312,16.414,5.561,20.38c0,0,25.516-.664,28.282-4.205s-1.679-14.474-16.968-16.727C1184.3,320.414,1183.166,320.649,1177.225,322.412Z" transform="translate(-107.883 -112.242)" fill="#311e69"/>
    <path id="Path_224" data-name="Path 224" d="M1197.225,223.5l3.263,6.451c.153.983-4.745,4.487-6.481,3.469-.508-.3-.519-1.26-.24-2.344l1.734-5.939Z" transform="translate(-117.72 -53.668)" fill="#ff623b"/>
    <path id="Path_225" data-name="Path 225" d="M1195.81,229.316c1.057-.351,2.5-.849,2.5-.849a4.739,4.739,0,0,1-1.165,3.263,4.541,4.541,0,0,1-2.465,1.464Z" transform="translate(-118.377 -56.655)" fill="#311e69"/>
    <g id="Group_104" data-name="Group 104" transform="translate(1094.927 189.332)">
      <path id="Path_226" data-name="Path 226" d="M1255.141,305.282c8.237-2.669,18.714-2.727,11.94-15.171-3.6-6.618-10.3-11.671-13.762-17.638l-.036-.064c-2.852,2.337-7.8,3.706-11.889,3.477,2.6,3.941,5.551,9,6.69,13.128a125.807,125.807,0,0,1,2.69,16.179A10.538,10.538,0,0,0,1255.141,305.282Z" transform="translate(-1241.395 -272.409)" fill="#d95f76"/>
    </g>
    <path id="Path_227" data-name="Path 227" d="M1184.5,213.915s-3.548-5.992.416-6.978a3.289,3.289,0,0,1,3.543.866,3.439,3.439,0,0,1,3.22,2.763c.6,2.856-.411,3.644-.411,3.644l-.293-.578Z" transform="translate(-111.38 -43.621)" fill="#311e69"/>
    <g id="Group_105" data-name="Group 105" transform="translate(1072.329 219.871)">
      <path id="Path_228" data-name="Path 228" d="M1189.338,349.678a13.168,13.168,0,0,0-4.622-.653c1.257,4.311,2.458,8.819,2.574,10.656,0,0,25.516-.664,28.282-4.205.969-1.239,1.052-3.384.1-5.745C1207.031,351.739,1194.752,351.265,1189.338,349.678Z" transform="translate(-1184.716 -349.002)" fill="#1e1240"/>
    </g>
    <path id="Path_229" data-name="Path 229" d="M1191.216,215.692l2.079,3.584a2.527,2.527,0,0,1-1.122,3.341,6.984,6.984,0,0,1-3,.762c-1.129.1-1.918-.836-2.225-2.279a13.776,13.776,0,0,1-.087-4.687C1187.19,214.184,1189.69,213.456,1191.216,215.692Z" transform="translate(-113.581 -48.158)" fill="#ff623b"/>
    <path id="Path_230" data-name="Path 230" d="M1198.71,219.838a3.633,3.633,0,0,0-.09-.762c-.1-.477-.14-1.21.642-1.012,1.137.289,1.536,2.862.4,3.3C1198.813,221.7,1198.708,220.485,1198.71,219.838Z" transform="translate(-120.715 -50.381)" fill="#ff623b"/>
    <path id="Path_231" data-name="Path 231" d="M1189.931,226.1a6.8,6.8,0,0,1-2.183.533s.143.846.713,1.029S1189.84,227.165,1189.931,226.1Z" transform="translate(-114.21 -55.232)" fill="#fff"/>
    <path id="Path_232" data-name="Path 232" d="M1189.763,229.353c1.179-.508,2.511,1.159,4.326-1.074a3.233,3.233,0,0,0,.4-1.749l.045.079a2.527,2.527,0,0,1-1.123,3.341,6.981,6.981,0,0,1-3,.762,1.759,1.759,0,0,1-1.653-.855C1188.983,229.846,1189.4,229.508,1189.763,229.353Z" transform="translate(-114.817 -55.491)" fill="#ad263d"/>
    <path id="Path_233" data-name="Path 233" d="M1249.677,321.916a13.49,13.49,0,0,1,13.16,12.761c.006.125.01.251.012.377.156,8.1-12.232,9.558-12.232,9.558s6.182,5.951,6.648,11.249a113.111,113.111,0,0,1,.208,14.073,43,43,0,0,1-1.517,8.907l-5.1,1.029s-7.186-15.355-9.8-19.543a82.193,82.193,0,0,1-8.519-19.457C1230.244,331.573,1234.284,321.471,1249.677,321.916Z" transform="translate(-140.784 -112.836)" fill="#ff623b"/>
    <path id="Path_234" data-name="Path 234" d="M1267.362,382.425l5.1-1.029a43,43,0,0,0,1.517-8.907,113.179,113.179,0,0,0-.208-14.073c-.467-5.3-6.649-11.249-6.649-11.249s12.388-1.454,12.232-9.558c0-.126-.006-.252-.012-.377-.316-7.031-4.087-10.546-11.122-10.749-.009,0-4.342-.934-4.193.329.258,2.185.141,5.04-1.617,7.048-3.228,3.689-1.383,6.824-2.766,9.683s3.339,17.95,5.174,24.283c.645,2.226.539,6.039.411,10.108C1266.484,380.55,1267.362,382.425,1267.362,382.425Z" transform="translate(-157.292 -115.39)" fill="rgba(18,18,18,0.15)"/>
    <g id="Group_106" data-name="Group 106" transform="translate(1098.074 209.08)">
      <path id="Path_235" data-name="Path 235" d="M1274.823,333.678c.832-6.956-.822-11.589-14.635-11.738-4.6-.049-8.188.651-10.9,2.083,3.554.575,10.306,2.08,12.889,6.277,5.3,8.61,3.469,13.217,3.469,13.217a6.81,6.81,0,0,1,.869,1.353A13.738,13.738,0,0,0,1274.823,333.678Z" transform="translate(-1249.286 -321.938)" fill="#311e69"/>
    </g>
    <path id="Path_236" data-name="Path 236" d="M1373.717,208.335c1.833-8.7-2.245-13.414-2.245-13.414l-4.774,8.222A32.593,32.593,0,0,1,1373.717,208.335Z" transform="translate(-221.81 -36.485)" fill="#311e69"/>
    <path id="Path_237" data-name="Path 237" d="M1232.621,226.541c1.624.428,5.993-1.218,5.947-.816-.051.442-.736.74-1.975,1.177s-1.285,2.035.033,1.3,2.693-.5,4.416-.878c.961-.209,3.982-1.864,3.574-3.917a3.3,3.3,0,0,0-1.479-1.905c-1.958-1.093-6.955,1.184-9,2.408C1232.919,224.637,1231.748,226.311,1232.621,226.541Z" transform="translate(-141.01 -52.291)" fill="#ff623b"/>
    <path id="Path_238" data-name="Path 238" d="M1157.344,449.9a4.03,4.03,0,0,0-2.811.4,3.354,3.354,0,0,0-1.839,2.981,4.9,4.9,0,0,1-1.942,4.075c-.353.248-5.48,2.686-5.817,2.943-4.1,3.14,13.212,1.662,15.214.265,1.378-.961.04-3.242.371-6.109C1160.688,453,1158.757,450.291,1157.344,449.9Z" transform="translate(-88.091 -189.736)" fill="#311e69"/>
    <path id="Path_239" data-name="Path 239" d="M1261.447,449.7c-2.054.949.673,4.767-2.651,6.836-.366.228-5.68,3.433-6.017,3.691-4.1,3.14,13.212,1.662,15.214.265,1.378-.961.531-3.915.478-6.8C1268.394,449.544,1263.175,448.9,1261.447,449.7Z" transform="translate(-152.936 -189.499)" fill="#311e69"/>
    <g id="Group_107" data-name="Group 107" transform="translate(997.804 236.598)">
      <rect id="Rectangle_46" data-name="Rectangle 46" width="16.265" height="2.1" rx="1.05" transform="translate(0 17.478)" fill="#ccc"/>
      <path id="Path_240" data-name="Path 240" d="M1016.037,390.955c-4.586,0-8.3,8.3-8.3,18.528s3.718,18.527,8.3,18.527c.276,0,5.135-.09,5.135-.09V390.955Z" transform="translate(-1003.774 -390.955)" fill="#311e69"/>
      <ellipse id="Ellipse_16" data-name="Ellipse 16" cx="8.304" cy="18.527" rx="8.304" ry="18.527" transform="translate(9.917 0)" fill="#614cd4"/>
      <path id="Path_241" data-name="Path 241" d="M1039.181,390.955c-4.586,0-8.3,8.3-8.3,18.528s3.718,18.527,8.3,18.527c.276,0,5.135-.09,5.135-.09V390.955Z" transform="translate(-1017.69 -390.955)" fill="#311e69"/>
      <ellipse id="Ellipse_17" data-name="Ellipse 17" cx="8.304" cy="18.527" rx="8.304" ry="18.527" transform="translate(19.145 0)" fill="#614cd4"/>
      <path id="Rectangle_47" data-name="Rectangle 47" d="M1.05,0h113a0,0,0,0,1,0,0V2.1a0,0,0,0,1,0,0H1.05A1.05,1.05,0,0,1,0,1.05v0A1.05,1.05,0,0,1,1.05,0Z" transform="translate(28.852 17.478)" fill="#ccc"/>
      <path id="Path_242" data-name="Path 242" d="M1336.211,390.955c-4.586,0-8.3,8.3-8.3,18.528s3.718,18.527,8.3,18.527c.276,0,5.135-.09,5.135-.09V390.955Z" transform="translate(-1196.29 -390.955)" fill="#311e69"/>
      <ellipse id="Ellipse_18" data-name="Ellipse 18" cx="8.304" cy="18.527" rx="8.304" ry="18.527" transform="translate(137.576 0)" fill="#614cd4"/>
      <path id="Path_243" data-name="Path 243" d="M1359.355,390.955c-4.586,0-8.3,8.3-8.3,18.528s3.718,18.527,8.3,18.527c.276,0,5.135-.09,5.135-.09V390.955Z" transform="translate(-1210.206 -390.955)" fill="#311e69"/>
      <ellipse id="Ellipse_19" data-name="Ellipse 19" cx="8.304" cy="18.527" rx="8.304" ry="18.527" transform="translate(146.804 0)" fill="#614cd4"/>
      <path id="Path_244" data-name="Path 244" d="M1384.3,426.635c-1.065,0-1.928,1.926-1.928,4.3s.863,4.3,1.928,4.3l5.7-.021v-8.582Z" transform="translate(-1229.039 -412.409)" fill="#311e69"/>
      <ellipse id="Ellipse_20" data-name="Ellipse 20" cx="1.928" cy="4.301" rx="1.928" ry="4.301" transform="translate(159.23 14.226)" fill="#614cd4"/>
      <rect id="Rectangle_48" data-name="Rectangle 48" width="16.265" height="2.1" rx="1.05" transform="translate(160.775 17.478)" fill="#ccc"/>
    </g>
    <path id="Path_245" data-name="Path 245" d="M1227.244,240.663c-2.357.251-4.551,1.549-5.308,8.576-.449,4.161-2.63,34.822-2.195,53.347.173,7.356,1.639,13.033,3.035,13.72,6.682,3.29,14.15-55.617,13.73-64.577S1230.685,240.3,1227.244,240.663Z" transform="translate(-133.413 -63.968)" fill="#ff623b"/>
    <path id="Path_246" data-name="Path 246" d="M1149.611,423.946s.333,5.12-.842,6.2c-.734.673.667,1.512,1.679,1.274.607-.143.676-1.055,1.175-1.554C1152.953,428.53,1152.748,421.879,1149.611,423.946Z" transform="translate(-90.65 -173.956)" fill="#121212" opacity="0.15"/>
    <path id="Path_247" data-name="Path 247" d="M1297.723,181.8c-6.105,1.462-14.04,23.764-14.04,23.764s-28.468,17.252-28.48,21.873c-.016,6.125,28.7-1.813,39.537-14.716C1310.7,193.728,1306.658,179.663,1297.723,181.8Z" transform="translate(-154.77 -28.468)" fill="#ff623b"/>
    <path id="Path_248" data-name="Path 248" d="M1242.655,251.729c-.42-8.96-5.82-11.432-9.261-11.066-.069.007-.138.016-.207.025,1.2,3.05,3.316,9.256,2.644,13.623-.922,5.994-6.271,41.036-5.9,46.846.243,3.825.437,9.408,1.6,13.566C1237.4,305.259,1243.021,259.536,1242.655,251.729Z" transform="translate(-139.563 -63.968)" fill="rgba(18,18,18,0.15)"/>
    <path id="Path_249" data-name="Path 249" d="M1220.461,418.174s-1.793,5.72-1.723,6.91a2.934,2.934,0,0,0,3.15,2.858,7.865,7.865,0,0,0,1.567-.14,1.419,1.419,0,0,0,1.126-1.618c-.165-1,.31-2.336.6-3.842C1226.088,417.558,1222.184,415.966,1220.461,418.174Z" transform="translate(-132.843 -170.136)" fill="#ff6161"/>
    <path id="Path_250" data-name="Path 250" d="M1240.217,292.662c1.132-1.24,5.7-2.227,5.439-2.539-.283-.344-1.02-.223-2.3.081s-2.183-1.013-.674-1.106,2.535-1.037,4.187-1.657c.921-.345,4.357-.593,5.127,1.352a3.3,3.3,0,0,1-.21,2.4c-1.052,1.98-6.486,2.777-8.865,2.855C1241.5,294.1,1239.609,293.328,1240.217,292.662Z" transform="translate(-145.689 -91.974)" fill="#ff623b"/>
    <g id="Group_108" data-name="Group 108" transform="translate(1152.01 143.523)">
      <path id="Path_251" data-name="Path 251" d="M1420.254,193.928c-2.363-7.241-13.735-30.26-23.457-36.405l-.007,0a10.488,10.488,0,0,0-7.662,2.749c-3.965,3.861-5.625,2.819-3.873,6.844s3.6,3.765,4.426,10.442a14.03,14.03,0,0,0,.536,2.441,15.835,15.835,0,0,0,11.646,10.607c4.531,1.044,10.444,3.285,11.126,7.927C1416.409,197.95,1419.12,196.618,1420.254,193.928Z" transform="translate(-1384.561 -157.517)" fill="#311e69"/>
    </g>
    <path id="Path_252" data-name="Path 252" d="M1304.208,181.606c-1.15,1.053-4.021,3.964-4.308,7.054-.36,3.873.193,3.873-1.651,7.469s-6.732,12.078-7.838,13.74-20.916,13.092-24.028,16.356a16.045,16.045,0,0,0-2.6,3.3c7.934.451,27.572-6.631,36.117-16.8C1315.047,194.7,1312.177,181.115,1304.208,181.606Z" transform="translate(-159.929 -28.471)" fill="rgba(18,18,18,0.15)"/>
  </g>
</svg>
