<svg xmlns="http://www.w3.org/2000/svg" viewBox="0 0 67.15 69.05"><g id="Layer_2" data-name="Layer 2"><g id="Layer_1-2" data-name="Layer 1"><path d="M65.81,31.46c-2.62-4.67-5.47-9.47-8.57-14.35C54.63,13,52,9.06,49.37,5.32A12.47,12.47,0,0,0,36.83.22s-3,.53-3.21.57l-4.34,1a2.35,2.35,0,0,0-1.72,1.58L25.43,10a2.37,2.37,0,0,0,.07,1.64l.2.45A2.32,2.32,0,0,0,27,13.38a18.67,18.67,0,0,0,4.72,1.29,18.41,18.41,0,0,0,5.93-.18,2.39,2.39,0,0,0,1.82-1.62l1-3.14a3.15,3.15,0,0,1,2.71,1.82,90.93,90.93,0,0,1,3.69,11.34c1.75,7-1,8.55-4.4,7.54a25.28,25.28,0,0,0-11.13-1.67c-6.26.51-9.31,3.3-9.3,3.31h0s-6.13-7.42-12.71-7.74A11,11,0,0,0,2.8,26.22,121.3,121.3,0,0,0,.19,45c-.63,10.52.48,15.29,1,17.08A40.6,40.6,0,0,0,3,67.48a2.54,2.54,0,0,0,4.15.81L18,57.22a16.48,16.48,0,0,0,2.2,1.63c5.38,3.29,11.34,2.41,14.17,2,2-.33,9.87-1.56,15-5.47h0Q56.22,50.12,63,44.91A10.5,10.5,0,0,0,65.81,31.46Z" style="fill:#25333f"/></g></g></svg>