<svg id="Layer_1" data-name="Layer 1" xmlns="http://www.w3.org/2000/svg" viewBox="0 0 197.67 240"><path d="M200,135.86a10.71,10.71,0,0,1-10.71-10.7V106.68a10.71,10.71,0,1,1,21.41,0v18.48A10.7,10.7,0,0,1,200,135.86Z" transform="translate(-101.16 -80)" style="fill:#2d3f50"/><path d="M143.06,136.63a99.13,99.13,0,0,0-16.38,13.77l-10.79-12.81a7.16,7.16,0,0,1,.9-10l5.48-4.57a7.16,7.16,0,0,1,10,.9Z" transform="translate(-101.16 -80)" style="fill:#2d3f50"/><path d="M284.1,137.59,273.36,150.4A101.59,101.59,0,0,0,257,136.63l10.68-12.76a7.17,7.17,0,0,1,10.06-.9l5.47,4.57A7.16,7.16,0,0,1,284.1,137.59Z" transform="translate(-101.16 -80)" style="fill:#2d3f50"/><path d="M221.42,101.42c0,11.83-9.59,12.21-21.42,12.21s-21.42-.38-21.42-12.21a21.42,21.42,0,1,1,42.84,0Z" transform="translate(-101.16 -80)" style="fill:#2d3f50"/><path d="M214.52,221.16A14.52,14.52,0,1,1,200,206.64,14.52,14.52,0,0,1,214.52,221.16Z" transform="translate(-101.16 -80)" style="fill:#2d3f50"/><path d="M185.48,221.16c0-20.22,12.86-54.72,14.52-54.72s14.52,34.5,14.52,54.72C214.52,239.94,185.48,240.45,185.48,221.16Z" transform="translate(-101.16 -80)" style="fill:#2d3f50"/><path d="M200,143.67a77.49,77.49,0,1,0,77.49,77.49A77.58,77.58,0,0,0,200,143.67ZM200,291a69.84,69.84,0,1,1,69.83-69.84A69.91,69.91,0,0,1,200,291Z" transform="translate(-101.16 -80)" style="fill:#2d3f50"/><path d="M200,122.33a98.84,98.84,0,1,0,98.84,98.83A99,99,0,0,0,200,122.33Zm0,181.48a82.65,82.65,0,1,1,82.64-82.65A82.74,82.74,0,0,1,200,303.81Z" transform="translate(-101.16 -80)" style="fill:#2d3f50"/></svg>