<svg id="Layer_1" data-name="Layer 1" xmlns="http://www.w3.org/2000/svg" viewBox="0 0 288.78 240"><path d="M338,118.35C325.15,92.9,295,80,248.41,80c-46.83,0-77.29,13-90.55,38.63-5.36,10.38-7.14,21.54-6.72,32.57,17.14,3.06,31.08,9.45,40.61,18.53a.61.61,0,0,0,1-.64c-4.1-12.09-5.88-24.55-1.44-33.15,6.1-11.78,26.37-18.27,57.09-18.27,30.32,0,50.2,6.27,56,17.65,7.34,14.47-4,40.68-13.85,57a82.1,82.1,0,0,0-85-.4,3.56,3.56,0,0,0-1.67,3.05c-.05,3.89-.58,8-.9,12.86a87.19,87.19,0,0,1-6,25.52A139.5,139.5,0,0,1,182.15,261a3.44,3.44,0,0,0-.45,3,53.28,53.28,0,0,1-.75,32.51,3.57,3.57,0,0,0,.39,3.16,77.93,77.93,0,0,0,13,14.64,22.68,22.68,0,0,0,15.08,5.63c8,.13,68.53,0,76.46,0S298,316.85,300,315.16a75.61,75.61,0,0,0,27.33-58,74.61,74.61,0,0,0-9.86-37.11C326.77,206.54,357.55,157,338,118.35Z" transform="translate(-55.61 -80)" style="fill:#2d3f50"/><path d="M190.5,183.83c-9.28-18.36-31-27.67-64.66-27.67-33.78,0-55.75,9.38-65.32,27.87C44.69,214.65,72,254.68,75.12,259.14a13.49,13.49,0,0,0,2.4,2.59,47.56,47.56,0,0,0-3,16.74A48.27,48.27,0,0,0,91.3,315a14.51,14.51,0,0,0,9.63,3.6c1.7,0,7.13,0,13.8,0,13.34,0,31.64,0,35,0a13.05,13.05,0,0,0,9-3.06,48.3,48.3,0,0,0,17.45-37,47.51,47.51,0,0,0-3.37-17.59,13.33,13.33,0,0,0,1.34-1.54C177.47,254.85,206,214.55,190.5,183.83Zm-35.23,54.95a52.29,52.29,0,0,0-60.65.55c-6.94-11.38-15.74-31.63-10-42.81,4.4-8.5,19-13.18,41.18-13.18,21.88,0,36.23,4.52,40.4,12.73C171.78,207,162.55,227.19,155.27,238.78Z" transform="translate(-55.61 -80)" style="fill:#2d3f50"/></svg>