<svg xmlns="http://www.w3.org/2000/svg" width="24" height="24" viewBox="0 0 24 24">
  <g id="Group_21" data-name="Group 21" transform="translate(-334 -406)">
    <path id="Path" d="M0,0H24V24H0Z" transform="translate(334 406)" fill="none" fill-rule="evenodd"/>
    <path id="Path-2" data-name="Path" d="M20.57,14.86l.72-.72a1,1,0,0,0,0-1.41l-.02-.02a1,1,0,0,0-1.41,0L17,15.57,8.43,7l2.86-2.86a1,1,0,0,0,0-1.41l-.02-.02a1,1,0,0,0-1.41,0l-.72.72-.72-.72A1.008,1.008,0,0,0,7,2.71L5.57,4.14l-.72-.72A1.011,1.011,0,0,0,3.42,4.85l.72.72L2.71,7a1,1,0,0,0,0,1.41l.72.72-.72.73a1,1,0,0,0,0,1.41l.02.02a1,1,0,0,0,1.41,0L7,8.43,15.57,17l-2.86,2.86a1,1,0,0,0,0,1.41l.02.02a1,1,0,0,0,1.41,0l.72-.72.72.72a1,1,0,0,0,1.41,0l1.43-1.43.72.72a1.011,1.011,0,1,0,1.43-1.43l-.72-.72L21.29,17a1,1,0,0,0,0-1.41Z" transform="translate(334 406)" fill="#fff"/>
    <path id="Combined-Shape" d="M20,0a4,4,0,1,1-4,4A4,4,0,0,1,20,0Zm0,1.667A.334.334,0,0,0,19.667,2h0V3.667H18a.333.333,0,0,0,0,.667h1.667V6a.333.333,0,1,0,.667,0h0V4.333H22a.333.333,0,0,0,0-.667H20.333V2A.334.334,0,0,0,20,1.667Z" transform="translate(334 406)" fill="#fff" fill-rule="evenodd"/>
  </g>
</svg>
