<svg id="Layer_1" data-name="Layer 1" xmlns="http://www.w3.org/2000/svg" viewBox="0 0 213.73 240"><path d="M257.87,105l0,0c.14.26.28.51.41.77C258.13,105.46,258,105.21,257.87,105Z" transform="translate(-93.13 -80)" style="fill:#2d3f50"/><path d="M93.17,258.67c0,.1,0,.23,0,.37,0-.12,0-.25,0-.37Z" transform="translate(-93.13 -80)" style="fill:#2d3f50"/><path d="M295.29,191.6a282.12,282.12,0,0,0-11.66-36.08c-3.38-8.53-7.63-23.75-8.94-26.86-12.35-29.39-24.55-51.87-37.86-48.28C226,83.3,198,98.1,196.3,115.67c-.45,4.62.73,11.42,8.91,17.62,10.92,8.28,17.18,13.56,21.32,17.05,3.38,2.85,5.44,4.59,7.42,5.65,1.3,7.17-.13,31.93-2.56,58.73l-.77,5.86c-2,0-8.3-3.8-11.87-5.79-15.18-8.47-40.41-22.54-68.4-.35-5.35-.24-16.23-1.11-23.77,0-4.67.68-15.32,4.2-23.84,12.74-3.12,3.13-7.1,9.62-8.19,15.08a73.7,73.7,0,0,0-1.38,16.41c0,.12,0,.25,0,.37a45.62,45.62,0,0,0,1,8.21c2.46,10.64,7,25.09,20.65,37.08,10.52,9.22,23.47,12.73,38.49,10.44,3.74-.57,31.33,4.88,35,5.16,13.11,1,41.79-8,54.35-15.43,6.06-3.6,15.42-3.92,23.29-5.4,14.3-2.69,30.52-5.75,38.28-22.3a28.53,28.53,0,0,0,2.26-9.37C308.34,249.4,301.41,216.24,295.29,191.6ZM257.87,105c.13.23.26.48.39.73-.13-.26-.27-.51-.41-.77Z" transform="translate(-93.13 -80)" style="fill:#2d3f50"/></svg>