<?xml version="1.0" encoding="UTF-8"?>
<svg width="25px" height="12px" viewBox="0 0 25 12" version="1.1" xmlns="http://www.w3.org/2000/svg" xmlns:xlink="http://www.w3.org/1999/xlink">
    <title>skip_previous_twice-24px@2x</title>
    <g id="Symbols" stroke="none" stroke-width="1" fill="none" fill-rule="evenodd">
        <g id="icons/skip_previous_twice-24px" transform="translate(-6.000000, -6.000000)" fill="#FFFFFF" fill-rule="nonzero">
            <g id="skip_previous_twice-24px" transform="translate(6.000000, 6.000000)">
                <path d="M17.3625,10.96 L23.5625,6.83 C24.1525,6.43 24.1525,5.56 23.5625,5.17 L17.3625,1.04 C16.7025,0.59 15.8125,1.07 15.8125,1.87 L15.8125,10.13 C15.8125,10.93 16.7025,11.41 17.3625,10.96 Z" id="Path-Copy" transform="translate(19.908750, 6.000000) rotate(180.000000) translate(-19.908750, -6.000000) "></path>
                <path d="M6.36,10.96 L12.56,6.83 C13.15,6.43 13.15,5.56 12.56,5.17 L6.36,1.04 C5.7,0.59 4.81,1.07 4.81,1.87 L4.81,10.13 C4.81,10.93 5.7,11.41 6.36,10.96 Z" id="Path" transform="translate(8.906250, 6.000000) rotate(180.000000) translate(-8.906250, -6.000000) "></path>
                <path d="M0,1 L0,11 C0,11.55 0.45,12 1,12 L1,12 C1.55,12 2,11.55 2,11 L2,1 C2,0.45 1.55,0 1,0 L1,0 C0.45,0 0,0.45 0,1 Z" id="Path" transform="translate(1.000000, 6.000000) rotate(180.000000) translate(-1.000000, -6.000000) "></path>
            </g>
        </g>
    </g>
</svg>