<?xml version="1.0" encoding="UTF-8"?>
<svg width="300px" height="300px" viewBox="0 0 300 300" version="1.1" xmlns="http://www.w3.org/2000/svg" xmlns:xlink="http://www.w3.org/1999/xlink">
    <title>Artboard@1.5x</title>
    <g id="Artboard" stroke="none" stroke-width="1" fill="none" fill-rule="evenodd">
        <g id="library_music_black_24dp">
            <path d="M270,0 L90,0 C73.5,0 60,13.5 60,30 L60,210 C60,226.5 73.5,240 90,240 L270,240 C286.5,240 300,226.5 300,210 L300,30 C300,13.5 286.5,0 270,0 Z" id="Path" fill="#000000" fill-rule="nonzero"></path>
            <path d="M15,60 C6.75,60 0,66.75 0,75 L0,270 C0,286.5 13.5,300 30,300 L225,300 C233.25,300 240,293.25 240,285 C240,276.75 233.25,270 225,270 L45,270 C36.75,270 30,263.25 30,255 L30,75 C30,66.75 23.25,60 15,60 Z" id="Path" fill="#000000" fill-rule="nonzero"></path>
            <g id="fitness_center-24px" transform="translate(120.000000, 60.000000)">
                <polygon id="Path" points="0 0 120 0 120 120 0 120"></polygon>
                <path d="M103.392542,74.962705 L106.97739,71.3778568 C108.919183,69.4360641 108.919183,66.299322 106.97739,64.3575293 L106.877811,64.2579501 C104.936019,62.3161574 101.799276,62.3161574 99.8574837,64.2579501 L85.6176703,78.4977636 L42.9480196,35.8281129 L57.187833,21.5882995 C59.1296257,19.6465067 59.1296257,16.5097646 57.187833,14.5679719 L57.0882539,14.4683927 C55.1464611,12.5266 52.009719,12.5266 50.0679263,14.4683927 L46.4830782,18.0532409 L42.89823,14.4683927 C40.9564373,12.5266 37.7699056,12.5266 35.8281129,14.4683927 L28.7082062,21.5882995 L25.123358,18.0034513 C23.1815653,16.0616586 19.9452441,16.0616586 18.0034513,18.0034513 C16.0616586,19.9452441 16.0616586,23.1815653 18.0034513,25.123358 L21.5882995,28.7082062 L14.4683927,35.8281129 C12.5266,37.7699056 12.5266,40.9066477 14.4683927,42.8484405 L18.0532409,46.4332886 L14.4683927,50.0679263 C12.5266,52.009719 12.5266,55.1464611 14.4683927,57.0882539 L14.5679719,57.187833 C16.5097646,59.1296257 19.6465067,59.1296257 21.5882995,57.187833 L35.8281129,42.9480196 L78.4977636,85.6176703 L64.2579501,99.8574837 C62.3161574,101.799276 62.3161574,104.936019 64.2579501,106.877811 L64.3575293,106.97739 C66.299322,108.919183 69.4360641,108.919183 71.3778568,106.97739 L74.962705,103.392542 L78.5475531,106.97739 C80.4893459,108.919183 83.626088,108.919183 85.5678807,106.97739 L92.6877874,99.8574837 L96.2726355,103.442332 C98.2144283,105.384125 101.45075,105.384125 103.392542,103.442332 C105.334335,101.500539 105.334335,98.2642178 103.392542,96.3224251 L99.8076941,92.737577 L106.97739,85.6176703 C108.919183,83.6758775 108.919183,80.5391354 106.97739,78.5973427 L103.392542,74.962705 Z" id="Path" fill="#FFFFFF" fill-rule="nonzero"></path>
            </g>
        </g>
    </g>
</svg>